%MOIN*%
%OFA0B0*%
%FSLAX46Y46*%
%IPPOS*%
%LPD*%
%AMREC130*
4,1,3,
0.034,-0.034,
0.034,0.034,
-0.034,0.034,
-0.034,-0.034,
0*
%
%AMOBR140*
4,1,79,
-0.034,0.0000000000000000020818308014980413,
-0.033895189346926355,0.0026676092547467303,
-0.033581403580234689,0.0053187718113678522,
-0.033060577293521007,0.0079371423711007867,
-0.032335921554035224,0.010506577808748214,
-0.031411904105383755,0.013011236700413056,
-0.030294221822404512,0.015435676991144594,
-0.028989765588039139,0.017764951200342265,
-0.027506577808748215,0.019984698577944087,
-0.025853802830401056,0.022081233643226245,
-0.024041630560342621,0.024041630560342617,
-0.022081233643226245,0.025853802830401056,
-0.019984698577944087,0.027506577808748215,
-0.017764951200342265,0.028989765588039139,
-0.015435676991144592,0.030294221822404512,
-0.013011236700413053,0.031411904105383755,
-0.010506577808748212,0.032335921554035224,
-0.0079371423711007832,0.033060577293521007,
-0.0053187718113678496,0.033581403580234689,
-0.0026676092547467281,0.033895189346926355,
0,0.034,
0.0026676092547467281,0.033895189346926355,
0.0053187718113678496,0.033581403580234689,
0.007937142371100785,0.033060577293521007,
0.010506577808748212,0.032335921554035224,
0.013011236700413053,0.031411904105383755,
0.015435676991144592,0.030294221822404512,
0.017764951200342265,0.028989765588039139,
0.019984698577944087,0.027506577808748219,
0.022081233643226245,0.025853802830401056,
0.024041630560342617,0.024041630560342621,
0.025853802830401052,0.022081233643226249,
0.027506577808748215,0.019984698577944091,
0.028989765588039139,0.017764951200342265,
0.030294221822404509,0.015435676991144594,
0.031411904105383755,0.013011236700413053,
0.032335921554035224,0.010506577808748214,
0.033060577293521007,0.0079371423711007867,
0.033581403580234689,0.0053187718113678522,
0.033895189346926355,0.0026676092547467303,
0.034,0.0000000000000000020818308014980413,
0.033895189346926355,-0.0026676092547467264,
0.033581403580234689,-0.0053187718113678478,
0.033060577293521007,-0.0079371423711007832,
0.032335921554035224,-0.01050657780874821,
0.031411904105383755,-0.013011236700413051,
0.030294221822404512,-0.015435676991144589,
0.028989765588039142,-0.017764951200342261,
0.027506577808748219,-0.019984698577944084,
0.025853802830401056,-0.022081233643226245,
0.024041630560342621,-0.024041630560342617,
0.022081233643226238,-0.025853802830401063,
0.019984698577944091,-0.027506577808748215,
0.017764951200342251,-0.028989765588039142,
0.015435676991144596,-0.030294221822404509,
0.013011236700413072,-0.031411904105383741,
0.010506577808748217,-0.032335921554035224,
0.0079371423711007746,-0.033060577293521007,
0.0053187718113678548,-0.033581403580234682,
0.0026676092547467472,-0.033895189346926355,
0.0000000000000000041636616029960833,-0.034,
-0.0026676092547467389,-0.033895189346926355,
-0.0053187718113678452,-0.033581403580234689,
-0.0079371423711007659,-0.033060577293521014,
-0.01050657780874821,-0.032335921554035224,
-0.013011236700413063,-0.031411904105383748,
-0.015435676991144589,-0.030294221822404512,
-0.017764951200342244,-0.028989765588039153,
-0.019984698577944084,-0.027506577808748219,
-0.022081233643226252,-0.025853802830401049,
-0.02404163056034261,-0.024041630560342624,
-0.025853802830401063,-0.022081233643226238,
-0.027506577808748208,-0.019984698577944097,
-0.028989765588039142,-0.017764951200342254,
-0.030294221822404509,-0.015435676991144596,
-0.031411904105383741,-0.013011236700413074,
-0.032335921554035224,-0.010506577808748219,
-0.033060577293521007,-0.0079371423711007763,
-0.033581403580234682,-0.0053187718113678556,
-0.033895189346926355,-0.0026676092547467493,
0*
%
%AMREC150*
4,1,3,
0.024606299212598427,-0.029527559055118113,
0.024606299212598427,0.029527559055118113,
-0.024606299212598427,0.029527559055118113,
-0.024606299212598427,-0.029527559055118113,
0*
%
%AMREC160*
4,1,3,
0.044,-0.044,
0.044,0.044,
-0.044,0.044,
-0.044,-0.044,
0*
%
%AMREC370*
4,1,3,
0.034,-0.034,
0.034,0.034,
-0.034,0.034,
-0.034,-0.034,
0*
%
%AMOBR380*
4,1,79,
-0.034,0.0000000000000000020818308014980413,
-0.033895189346926355,0.0026676092547467303,
-0.033581403580234689,0.0053187718113678522,
-0.033060577293521007,0.0079371423711007867,
-0.032335921554035224,0.010506577808748214,
-0.031411904105383755,0.013011236700413056,
-0.030294221822404512,0.015435676991144594,
-0.028989765588039139,0.017764951200342265,
-0.027506577808748215,0.019984698577944087,
-0.025853802830401056,0.022081233643226245,
-0.024041630560342621,0.024041630560342617,
-0.022081233643226245,0.025853802830401056,
-0.019984698577944087,0.027506577808748215,
-0.017764951200342265,0.028989765588039139,
-0.015435676991144592,0.030294221822404512,
-0.013011236700413053,0.031411904105383755,
-0.010506577808748212,0.032335921554035224,
-0.0079371423711007832,0.033060577293521007,
-0.0053187718113678496,0.033581403580234689,
-0.0026676092547467281,0.033895189346926355,
0,0.034,
0.0026676092547467281,0.033895189346926355,
0.0053187718113678496,0.033581403580234689,
0.007937142371100785,0.033060577293521007,
0.010506577808748212,0.032335921554035224,
0.013011236700413053,0.031411904105383755,
0.015435676991144592,0.030294221822404512,
0.017764951200342265,0.028989765588039139,
0.019984698577944087,0.027506577808748219,
0.022081233643226245,0.025853802830401056,
0.024041630560342617,0.024041630560342621,
0.025853802830401052,0.022081233643226249,
0.027506577808748215,0.019984698577944091,
0.028989765588039139,0.017764951200342265,
0.030294221822404509,0.015435676991144594,
0.031411904105383755,0.013011236700413053,
0.032335921554035224,0.010506577808748214,
0.033060577293521007,0.0079371423711007867,
0.033581403580234689,0.0053187718113678522,
0.033895189346926355,0.0026676092547467303,
0.034,0.0000000000000000020818308014980413,
0.033895189346926355,-0.0026676092547467264,
0.033581403580234689,-0.0053187718113678478,
0.033060577293521007,-0.0079371423711007832,
0.032335921554035224,-0.01050657780874821,
0.031411904105383755,-0.013011236700413051,
0.030294221822404512,-0.015435676991144589,
0.028989765588039142,-0.017764951200342261,
0.027506577808748219,-0.019984698577944084,
0.025853802830401056,-0.022081233643226245,
0.024041630560342621,-0.024041630560342617,
0.022081233643226238,-0.025853802830401063,
0.019984698577944091,-0.027506577808748215,
0.017764951200342251,-0.028989765588039142,
0.015435676991144596,-0.030294221822404509,
0.013011236700413072,-0.031411904105383741,
0.010506577808748217,-0.032335921554035224,
0.0079371423711007746,-0.033060577293521007,
0.0053187718113678548,-0.033581403580234682,
0.0026676092547467472,-0.033895189346926355,
0.0000000000000000041636616029960833,-0.034,
-0.0026676092547467389,-0.033895189346926355,
-0.0053187718113678452,-0.033581403580234689,
-0.0079371423711007659,-0.033060577293521014,
-0.01050657780874821,-0.032335921554035224,
-0.013011236700413063,-0.031411904105383748,
-0.015435676991144589,-0.030294221822404512,
-0.017764951200342244,-0.028989765588039153,
-0.019984698577944084,-0.027506577808748219,
-0.022081233643226252,-0.025853802830401049,
-0.02404163056034261,-0.024041630560342624,
-0.025853802830401063,-0.022081233643226238,
-0.027506577808748208,-0.019984698577944097,
-0.028989765588039142,-0.017764951200342254,
-0.030294221822404509,-0.015435676991144596,
-0.031411904105383741,-0.013011236700413074,
-0.032335921554035224,-0.010506577808748219,
-0.033060577293521007,-0.0079371423711007763,
-0.033581403580234682,-0.0053187718113678556,
-0.033895189346926355,-0.0026676092547467493,
0*
%
%AMREC390*
4,1,3,
0.024606299212598427,-0.029527559055118113,
0.024606299212598427,0.029527559055118113,
-0.024606299212598427,0.029527559055118113,
-0.024606299212598427,-0.029527559055118113,
0*
%
%AMREC400*
4,1,3,
0.044,-0.044,
0.044,0.044,
-0.044,0.044,
-0.044,-0.044,
0*
%
%ADD10C,0.0039370078740157488*%
%ADD11C,0.005905511811023622*%
%ADD12R,0.068X0.068*%
%ADD13O,0.068X0.068*%
%ADD14R,0.059055118110236227X0.049212598425196853*%
%ADD15R,0.088X0.088*%
%ADD16C,0.023622047244094488*%
%ADD17C,0.01*%
%ADD18C,0.025*%
%ADD29C,0.0039370078740157488*%
%ADD30C,0.005905511811023622*%
%ADD31REC130*%
%ADD32OBR140*%
%ADD33REC150*%
%ADD34REC160*%
%ADD35C,0.023622047244094488*%
%ADD36C,0.01*%
%ADD37C,0.025*%
%ADD48C,0.0039370078740157488*%
%ADD49C,0.005905511811023622*%
%ADD50REC370*%
%ADD51OBR380*%
%ADD52REC390*%
%ADD53REC400*%
%ADD54C,0.023622047244094488*%
%ADD55C,0.01*%
%ADD56C,0.025*%
%ADD67C,0.0039370078740157488*%
%ADD68C,0.011811023622047244*%
%ADD69C,0.005905511811023622*%
%LPD*%
G04 #@! TF.FileFunction,Copper,L1,Top,Signal*
G04 Gerber Fmt 4.6, Leading zero omitted, Abs format (unit mm)*
G04 Created by KiCad (PCBNEW 4.0.1-3.201512221401+6198~38~ubuntu15.10.1-stable) date søn 24 jan 2016 12:57:00 CET*
G01*
G04 APERTURE LIST*
G04 APERTURE END LIST*
D10*
D11*
X0000016204Y0001696850D02*
X0000016204Y0000515748D01*
X0000664204Y0001696850D02*
X0000016204Y0001696850D01*
X0000664204Y0000515748D02*
X0000664204Y0001696850D01*
X0000016204Y0000515748D02*
X0000664204Y0000515748D01*
D12*
X0000132204Y0000592125D03*
D13*
X0000132204Y0000692125D03*
X0000232204Y0000592125D03*
X0000232204Y0000692125D03*
X0000332203Y0000592125D03*
X0000332203Y0000692125D03*
X0000432204Y0000592125D03*
X0000432204Y0000692125D03*
D14*
X0000587417Y0001454125D03*
X0000488992Y0001454125D03*
D15*
X0000586204Y0000648125D03*
D16*
X0000204204Y0001008124D03*
X0000592204Y0001386125D03*
X0000228204Y0000944125D03*
X0000592204Y0001510125D03*
X0000540204Y0000944125D03*
X0000246204Y0001020125D03*
D17*
X0000232204Y0000592125D02*
X0000281204Y0000641126D01*
X0000281204Y0000931125D02*
X0000204204Y0001008124D01*
X0000281204Y0000641126D02*
X0000281204Y0000931125D01*
D18*
X0000592204Y0001386125D02*
X0000592204Y0001449338D01*
X0000592204Y0001449338D02*
X0000587417Y0001454125D01*
X0000166204Y0000882125D02*
X0000228204Y0000944125D01*
X0000132204Y0000692125D02*
X0000166204Y0000726125D01*
X0000166204Y0000726125D02*
X0000166204Y0000882125D01*
X0000592204Y0001510125D02*
X0000592204Y0001458913D01*
X0000592204Y0001458913D02*
X0000587417Y0001454125D01*
D17*
X0000246204Y0001020125D02*
X0000306204Y0000960125D01*
X0000306204Y0000960125D02*
X0000306204Y0000818125D01*
X0000306204Y0000818125D02*
X0000392204Y0000732125D01*
X0000392204Y0000732125D02*
X0000432204Y0000692125D01*
G36*
X0000636251Y0001494894D02*
X0000635216Y0001496505D01*
X0000629704Y0001500271D01*
X0000629704Y0001510125D01*
X0000629018Y0001513574D01*
X0000629022Y0001517416D01*
X0000627542Y0001520997D01*
X0000626850Y0001524475D01*
X0000624896Y0001527400D01*
X0000623429Y0001530950D01*
X0000620691Y0001533692D01*
X0000618721Y0001536642D01*
X0000615797Y0001538595D01*
X0000613083Y0001541314D01*
X0000609504Y0001542799D01*
X0000606555Y0001544769D01*
X0000603106Y0001545457D01*
X0000599559Y0001546930D01*
X0000595683Y0001546934D01*
X0000592204Y0001547625D01*
X0000588756Y0001546939D01*
X0000584914Y0001546943D01*
X0000581332Y0001545463D01*
X0000577854Y0001544769D01*
X0000574930Y0001542818D01*
X0000571380Y0001541351D01*
X0000568637Y0001538613D01*
X0000565688Y0001536642D01*
X0000563734Y0001533719D01*
X0000561016Y0001531005D01*
X0000559529Y0001527425D01*
X0000557559Y0001524475D01*
X0000556873Y0001521028D01*
X0000555400Y0001517480D01*
X0000555396Y0001513604D01*
X0000554704Y0001510125D01*
X0000554704Y0001503622D01*
X0000548625Y0001502478D01*
X0000540116Y0001497002D01*
X0000538284Y0001494322D01*
X0000532681Y0001499926D01*
X0000523491Y0001503732D01*
X0000500241Y0001503732D01*
X0000493992Y0001497482D01*
X0000493992Y0001459125D01*
X0000494779Y0001459125D01*
X0000494779Y0001449125D01*
X0000493992Y0001449125D01*
X0000493992Y0001410769D01*
X0000500241Y0001404519D01*
X0000523491Y0001404519D01*
X0000532681Y0001408324D01*
X0000538241Y0001413886D01*
X0000539618Y0001411746D01*
X0000547972Y0001406038D01*
X0000554704Y0001404674D01*
X0000554704Y0001386125D01*
X0000555390Y0001382677D01*
X0000555387Y0001378835D01*
X0000556867Y0001375254D01*
X0000557559Y0001371775D01*
X0000559512Y0001368851D01*
X0000560979Y0001365301D01*
X0000563717Y0001362558D01*
X0000565688Y0001359609D01*
X0000568611Y0001357656D01*
X0000571325Y0001354937D01*
X0000574904Y0001353451D01*
X0000577854Y0001351480D01*
X0000581302Y0001350794D01*
X0000584850Y0001349321D01*
X0000588725Y0001349317D01*
X0000592204Y0001348625D01*
X0000595653Y0001349311D01*
X0000599494Y0001349308D01*
X0000603076Y0001350788D01*
X0000606555Y0001351480D01*
X0000609478Y0001353433D01*
X0000613029Y0001354900D01*
X0000615772Y0001357638D01*
X0000618721Y0001359609D01*
X0000620674Y0001362532D01*
X0000623393Y0001365246D01*
X0000624879Y0001368826D01*
X0000626850Y0001371775D01*
X0000627536Y0001375223D01*
X0000629009Y0001378771D01*
X0000629012Y0001382647D01*
X0000629704Y0001386125D01*
X0000629704Y0001408022D01*
X0000634718Y0001411248D01*
X0000636251Y0001413493D01*
X0000636251Y0000716391D01*
X0000630204Y0000717615D01*
X0000542204Y0000717615D01*
X0000532940Y0000715872D01*
X0000524431Y0000710397D01*
X0000518723Y0000702042D01*
X0000516714Y0000692125D01*
X0000516714Y0000604125D01*
X0000518458Y0000594861D01*
X0000523933Y0000586352D01*
X0000532287Y0000580644D01*
X0000542204Y0000578636D01*
X0000630204Y0000578636D01*
X0000636251Y0000579774D01*
X0000636251Y0000543700D01*
X0000465617Y0000543700D01*
X0000473924Y0000549250D01*
X0000486713Y0000568391D01*
X0000491204Y0000590970D01*
X0000491204Y0000593281D01*
X0000486713Y0000615860D01*
X0000473924Y0000635001D01*
X0000463259Y0000642125D01*
X0000473924Y0000649250D01*
X0000486713Y0000668391D01*
X0000491204Y0000690970D01*
X0000491204Y0000693281D01*
X0000486713Y0000715860D01*
X0000473924Y0000735001D01*
X0000454783Y0000747790D01*
X0000432204Y0000752281D01*
X0000417416Y0000749340D01*
X0000336204Y0000830552D01*
X0000336204Y0000960125D01*
X0000333921Y0000971606D01*
X0000331419Y0000975350D01*
X0000327417Y0000981339D01*
X0000283020Y0001025736D01*
X0000283022Y0001027416D01*
X0000277429Y0001040950D01*
X0000267083Y0001051314D01*
X0000253558Y0001056930D01*
X0000238913Y0001056943D01*
X0000225380Y0001051351D01*
X0000216777Y0001042763D01*
X0000211559Y0001044929D01*
X0000196914Y0001044943D01*
X0000183380Y0001039350D01*
X0000173016Y0001029005D01*
X0000167400Y0001015479D01*
X0000167387Y0001000834D01*
X0000172979Y0000987301D01*
X0000183325Y0000976937D01*
X0000196850Y0000971321D01*
X0000198584Y0000971319D01*
X0000200474Y0000969429D01*
X0000139688Y0000908642D01*
X0000131559Y0000896476D01*
X0000128704Y0000882125D01*
X0000128704Y0000751584D01*
X0000109626Y0000747790D01*
X0000090485Y0000735001D01*
X0000077695Y0000715860D01*
X0000073204Y0000693281D01*
X0000073204Y0000690970D01*
X0000077695Y0000668391D01*
X0000090098Y0000649828D01*
X0000084043Y0000647319D01*
X0000077010Y0000640287D01*
X0000073204Y0000631098D01*
X0000073204Y0000603375D01*
X0000079454Y0000597125D01*
X0000127204Y0000597125D01*
X0000127204Y0000597913D01*
X0000137204Y0000597913D01*
X0000137204Y0000597125D01*
X0000137992Y0000597125D01*
X0000137992Y0000587125D01*
X0000137204Y0000587125D01*
X0000137204Y0000586338D01*
X0000127204Y0000586338D01*
X0000127204Y0000587125D01*
X0000079454Y0000587125D01*
X0000073204Y0000580875D01*
X0000073204Y0000553153D01*
X0000077010Y0000543964D01*
X0000077274Y0000543700D01*
X0000044157Y0000543700D01*
X0000044157Y0001442875D01*
X0000434464Y0001442875D01*
X0000434464Y0001424546D01*
X0000438270Y0001415358D01*
X0000445303Y0001408324D01*
X0000454491Y0001404519D01*
X0000477742Y0001404519D01*
X0000483992Y0001410769D01*
X0000483992Y0001449125D01*
X0000440714Y0001449125D01*
X0000434464Y0001442875D01*
X0000044157Y0001442875D01*
X0000044157Y0001483705D01*
X0000434464Y0001483705D01*
X0000434464Y0001465375D01*
X0000440714Y0001459125D01*
X0000483992Y0001459125D01*
X0000483992Y0001497482D01*
X0000477742Y0001503732D01*
X0000454491Y0001503732D01*
X0000445303Y0001499926D01*
X0000438270Y0001492893D01*
X0000434464Y0001483705D01*
X0000044157Y0001483705D01*
X0000044157Y0001668896D01*
X0000636251Y0001668896D01*
X0000636251Y0001494894D01*
X0000636251Y0001494894D01*
G37*
X0000636251Y0001494894D02*
X0000635216Y0001496505D01*
X0000629704Y0001500271D01*
X0000629704Y0001510125D01*
X0000629018Y0001513574D01*
X0000629022Y0001517416D01*
X0000627542Y0001520997D01*
X0000626850Y0001524475D01*
X0000624896Y0001527400D01*
X0000623429Y0001530950D01*
X0000620691Y0001533692D01*
X0000618721Y0001536642D01*
X0000615797Y0001538595D01*
X0000613083Y0001541314D01*
X0000609504Y0001542799D01*
X0000606555Y0001544769D01*
X0000603106Y0001545457D01*
X0000599559Y0001546930D01*
X0000595683Y0001546934D01*
X0000592204Y0001547625D01*
X0000588756Y0001546939D01*
X0000584914Y0001546943D01*
X0000581332Y0001545463D01*
X0000577854Y0001544769D01*
X0000574930Y0001542818D01*
X0000571380Y0001541351D01*
X0000568637Y0001538613D01*
X0000565688Y0001536642D01*
X0000563734Y0001533719D01*
X0000561016Y0001531005D01*
X0000559529Y0001527425D01*
X0000557559Y0001524475D01*
X0000556873Y0001521028D01*
X0000555400Y0001517480D01*
X0000555396Y0001513604D01*
X0000554704Y0001510125D01*
X0000554704Y0001503622D01*
X0000548625Y0001502478D01*
X0000540116Y0001497002D01*
X0000538284Y0001494322D01*
X0000532681Y0001499926D01*
X0000523491Y0001503732D01*
X0000500241Y0001503732D01*
X0000493992Y0001497482D01*
X0000493992Y0001459125D01*
X0000494779Y0001459125D01*
X0000494779Y0001449125D01*
X0000493992Y0001449125D01*
X0000493992Y0001410769D01*
X0000500241Y0001404519D01*
X0000523491Y0001404519D01*
X0000532681Y0001408324D01*
X0000538241Y0001413886D01*
X0000539618Y0001411746D01*
X0000547972Y0001406038D01*
X0000554704Y0001404674D01*
X0000554704Y0001386125D01*
X0000555390Y0001382677D01*
X0000555387Y0001378835D01*
X0000556867Y0001375254D01*
X0000557559Y0001371775D01*
X0000559512Y0001368851D01*
X0000560979Y0001365301D01*
X0000563717Y0001362558D01*
X0000565688Y0001359609D01*
X0000568611Y0001357656D01*
X0000571325Y0001354937D01*
X0000574904Y0001353451D01*
X0000577854Y0001351480D01*
X0000581302Y0001350794D01*
X0000584850Y0001349321D01*
X0000588725Y0001349317D01*
X0000592204Y0001348625D01*
X0000595653Y0001349311D01*
X0000599494Y0001349308D01*
X0000603076Y0001350788D01*
X0000606555Y0001351480D01*
X0000609478Y0001353433D01*
X0000613029Y0001354900D01*
X0000615772Y0001357638D01*
X0000618721Y0001359609D01*
X0000620674Y0001362532D01*
X0000623393Y0001365246D01*
X0000624879Y0001368826D01*
X0000626850Y0001371775D01*
X0000627536Y0001375223D01*
X0000629009Y0001378771D01*
X0000629012Y0001382647D01*
X0000629704Y0001386125D01*
X0000629704Y0001408022D01*
X0000634718Y0001411248D01*
X0000636251Y0001413493D01*
X0000636251Y0000716391D01*
X0000630204Y0000717615D01*
X0000542204Y0000717615D01*
X0000532940Y0000715872D01*
X0000524431Y0000710397D01*
X0000518723Y0000702042D01*
X0000516714Y0000692125D01*
X0000516714Y0000604125D01*
X0000518458Y0000594861D01*
X0000523933Y0000586352D01*
X0000532287Y0000580644D01*
X0000542204Y0000578636D01*
X0000630204Y0000578636D01*
X0000636251Y0000579774D01*
X0000636251Y0000543700D01*
X0000465617Y0000543700D01*
X0000473924Y0000549250D01*
X0000486713Y0000568391D01*
X0000491204Y0000590970D01*
X0000491204Y0000593281D01*
X0000486713Y0000615860D01*
X0000473924Y0000635001D01*
X0000463259Y0000642125D01*
X0000473924Y0000649250D01*
X0000486713Y0000668391D01*
X0000491204Y0000690970D01*
X0000491204Y0000693281D01*
X0000486713Y0000715860D01*
X0000473924Y0000735001D01*
X0000454783Y0000747790D01*
X0000432204Y0000752281D01*
X0000417416Y0000749340D01*
X0000336204Y0000830552D01*
X0000336204Y0000960125D01*
X0000333921Y0000971606D01*
X0000331419Y0000975350D01*
X0000327417Y0000981339D01*
X0000283020Y0001025736D01*
X0000283022Y0001027416D01*
X0000277429Y0001040950D01*
X0000267083Y0001051314D01*
X0000253558Y0001056930D01*
X0000238913Y0001056943D01*
X0000225380Y0001051351D01*
X0000216777Y0001042763D01*
X0000211559Y0001044929D01*
X0000196914Y0001044943D01*
X0000183380Y0001039350D01*
X0000173016Y0001029005D01*
X0000167400Y0001015479D01*
X0000167387Y0001000834D01*
X0000172979Y0000987301D01*
X0000183325Y0000976937D01*
X0000196850Y0000971321D01*
X0000198584Y0000971319D01*
X0000200474Y0000969429D01*
X0000139688Y0000908642D01*
X0000131559Y0000896476D01*
X0000128704Y0000882125D01*
X0000128704Y0000751584D01*
X0000109626Y0000747790D01*
X0000090485Y0000735001D01*
X0000077695Y0000715860D01*
X0000073204Y0000693281D01*
X0000073204Y0000690970D01*
X0000077695Y0000668391D01*
X0000090098Y0000649828D01*
X0000084043Y0000647319D01*
X0000077010Y0000640287D01*
X0000073204Y0000631098D01*
X0000073204Y0000603375D01*
X0000079454Y0000597125D01*
X0000127204Y0000597125D01*
X0000127204Y0000597913D01*
X0000137204Y0000597913D01*
X0000137204Y0000597125D01*
X0000137992Y0000597125D01*
X0000137992Y0000587125D01*
X0000137204Y0000587125D01*
X0000137204Y0000586338D01*
X0000127204Y0000586338D01*
X0000127204Y0000587125D01*
X0000079454Y0000587125D01*
X0000073204Y0000580875D01*
X0000073204Y0000553153D01*
X0000077010Y0000543964D01*
X0000077274Y0000543700D01*
X0000044157Y0000543700D01*
X0000044157Y0001442875D01*
X0000434464Y0001442875D01*
X0000434464Y0001424546D01*
X0000438270Y0001415358D01*
X0000445303Y0001408324D01*
X0000454491Y0001404519D01*
X0000477742Y0001404519D01*
X0000483992Y0001410769D01*
X0000483992Y0001449125D01*
X0000440714Y0001449125D01*
X0000434464Y0001442875D01*
X0000044157Y0001442875D01*
X0000044157Y0001483705D01*
X0000434464Y0001483705D01*
X0000434464Y0001465375D01*
X0000440714Y0001459125D01*
X0000483992Y0001459125D01*
X0000483992Y0001497482D01*
X0000477742Y0001503732D01*
X0000454491Y0001503732D01*
X0000445303Y0001499926D01*
X0000438270Y0001492893D01*
X0000434464Y0001483705D01*
X0000044157Y0001483705D01*
X0000044157Y0001668896D01*
X0000636251Y0001668896D01*
X0000636251Y0001494894D01*
G04 #@! TF.FileFunction,Copper,L1,Top,Signal*
G04 Gerber Fmt 4.6, Leading zero omitted, Abs format (unit mm)*
G04 Created by KiCad (PCBNEW 4.0.1-3.201512221401+6198~38~ubuntu15.10.1-stable) date søn 24 jan 2016 12:57:00 CET*
G01*
G04 APERTURE LIST*
G04 APERTURE END LIST*
D29*
D30*
X0000744094Y0000500456D02*
X0001925196Y0000500456D01*
X0000744094Y0001148456D02*
X0000744094Y0000500456D01*
X0001925196Y0001148456D02*
X0000744094Y0001148456D01*
X0001925196Y0000500456D02*
X0001925196Y0001148456D01*
D31*
X0001848818Y0000616456D03*
D32*
X0001748818Y0000616456D03*
X0001848818Y0000716456D03*
X0001748818Y0000716456D03*
X0001848818Y0000816455D03*
X0001748818Y0000816455D03*
X0001848818Y0000916456D03*
X0001748818Y0000916456D03*
D33*
X0000986818Y0001071669D03*
X0000986818Y0000973244D03*
D34*
X0001792818Y0001070456D03*
D35*
X0001432818Y0000688456D03*
X0001054818Y0001076456D03*
X0001496817Y0000712456D03*
X0000930818Y0001076456D03*
X0001496817Y0001024456D03*
X0001420818Y0000730456D03*
D36*
X0001848818Y0000716456D02*
X0001799817Y0000765456D01*
X0001509818Y0000765456D02*
X0001432818Y0000688456D01*
X0001799817Y0000765456D02*
X0001509818Y0000765456D01*
D37*
X0001054818Y0001076456D02*
X0000991606Y0001076456D01*
X0000991606Y0001076456D02*
X0000986818Y0001071669D01*
X0001558818Y0000650456D02*
X0001496817Y0000712456D01*
X0001748818Y0000616456D02*
X0001714817Y0000650456D01*
X0001714817Y0000650456D02*
X0001558818Y0000650456D01*
X0000930818Y0001076456D02*
X0000982031Y0001076456D01*
X0000982031Y0001076456D02*
X0000986818Y0001071669D01*
D36*
X0001420818Y0000730456D02*
X0001480818Y0000790456D01*
X0001480818Y0000790456D02*
X0001622818Y0000790456D01*
X0001622818Y0000790456D02*
X0001708817Y0000876456D01*
X0001708817Y0000876456D02*
X0001748818Y0000916456D01*
G36*
X0000946049Y0001120503D02*
X0000944439Y0001119468D01*
X0000940672Y0001113956D01*
X0000930818Y0001113956D01*
X0000927370Y0001113270D01*
X0000923528Y0001113274D01*
X0000919947Y0001111794D01*
X0000916468Y0001111102D01*
X0000913544Y0001109148D01*
X0000909993Y0001107681D01*
X0000907251Y0001104943D01*
X0000904302Y0001102973D01*
X0000902349Y0001100049D01*
X0000899630Y0001097335D01*
X0000898144Y0001093756D01*
X0000896173Y0001090807D01*
X0000895487Y0001087358D01*
X0000894014Y0001083810D01*
X0000894010Y0001079935D01*
X0000893318Y0001076456D01*
X0000894004Y0001073008D01*
X0000894001Y0001069166D01*
X0000895481Y0001065584D01*
X0000896173Y0001062106D01*
X0000898126Y0001059182D01*
X0000899593Y0001055632D01*
X0000902331Y0001052889D01*
X0000904302Y0001049940D01*
X0000907224Y0001047986D01*
X0000909939Y0001045268D01*
X0000913519Y0001043781D01*
X0000916468Y0001041811D01*
X0000919916Y0001041125D01*
X0000923464Y0001039652D01*
X0000927340Y0001039647D01*
X0000930818Y0001038956D01*
X0000937322Y0001038956D01*
X0000938466Y0001032877D01*
X0000943941Y0001024368D01*
X0000946622Y0001022535D01*
X0000941018Y0001016932D01*
X0000937212Y0001007744D01*
X0000937212Y0000984494D01*
X0000943462Y0000978243D01*
X0000981818Y0000978243D01*
X0000981818Y0000979031D01*
X0000991818Y0000979031D01*
X0000991818Y0000978243D01*
X0001030175Y0000978243D01*
X0001036424Y0000984494D01*
X0001036424Y0001007744D01*
X0001032619Y0001016932D01*
X0001027058Y0001022493D01*
X0001029198Y0001023870D01*
X0001034906Y0001032224D01*
X0001036269Y0001038956D01*
X0001054818Y0001038956D01*
X0001058267Y0001039642D01*
X0001062108Y0001039639D01*
X0001065690Y0001041118D01*
X0001069169Y0001041811D01*
X0001072092Y0001043763D01*
X0001075643Y0001045231D01*
X0001078386Y0001047968D01*
X0001081335Y0001049940D01*
X0001083288Y0001052863D01*
X0001086007Y0001055577D01*
X0001087493Y0001059156D01*
X0001089464Y0001062106D01*
X0001090150Y0001065554D01*
X0001091623Y0001069102D01*
X0001091626Y0001072977D01*
X0001092318Y0001076456D01*
X0001091632Y0001079905D01*
X0001091636Y0001083746D01*
X0001090156Y0001087328D01*
X0001089464Y0001090807D01*
X0001087510Y0001093730D01*
X0001086043Y0001097281D01*
X0001083305Y0001100024D01*
X0001081335Y0001102973D01*
X0001078411Y0001104926D01*
X0001075697Y0001107645D01*
X0001072118Y0001109131D01*
X0001069169Y0001111102D01*
X0001065721Y0001111788D01*
X0001062173Y0001113261D01*
X0001058297Y0001113264D01*
X0001054818Y0001113956D01*
X0001032921Y0001113956D01*
X0001029696Y0001118970D01*
X0001027450Y0001120503D01*
X0001724553Y0001120503D01*
X0001723329Y0001114456D01*
X0001723329Y0001026456D01*
X0001725072Y0001017192D01*
X0001730547Y0001008683D01*
X0001738900Y0001002975D01*
X0001748818Y0001000966D01*
X0001836818Y0001000966D01*
X0001846082Y0001002710D01*
X0001854592Y0001008185D01*
X0001860299Y0001016539D01*
X0001862308Y0001026456D01*
X0001862308Y0001114456D01*
X0001861170Y0001120503D01*
X0001897244Y0001120503D01*
X0001897244Y0000949869D01*
X0001891694Y0000958175D01*
X0001872553Y0000970965D01*
X0001849974Y0000975456D01*
X0001847663Y0000975456D01*
X0001825084Y0000970965D01*
X0001805943Y0000958175D01*
X0001798818Y0000947512D01*
X0001791694Y0000958175D01*
X0001772553Y0000970965D01*
X0001749974Y0000975456D01*
X0001747663Y0000975456D01*
X0001725084Y0000970965D01*
X0001705943Y0000958175D01*
X0001693154Y0000939034D01*
X0001688663Y0000916456D01*
X0001691604Y0000901668D01*
X0001610391Y0000820456D01*
X0001480818Y0000820456D01*
X0001469338Y0000818173D01*
X0001465593Y0000815670D01*
X0001459604Y0000811669D01*
X0001415208Y0000767272D01*
X0001413528Y0000767274D01*
X0001399994Y0000761681D01*
X0001389629Y0000751335D01*
X0001384014Y0000737810D01*
X0001384000Y0000723166D01*
X0001389593Y0000709631D01*
X0001398181Y0000701029D01*
X0001396014Y0000695809D01*
X0001396000Y0000681166D01*
X0001401593Y0000667632D01*
X0001411939Y0000657267D01*
X0001425463Y0000651652D01*
X0001440108Y0000651639D01*
X0001453643Y0000657231D01*
X0001464007Y0000667576D01*
X0001469623Y0000681102D01*
X0001469625Y0000682836D01*
X0001471515Y0000684726D01*
X0001532302Y0000623940D01*
X0001544468Y0000615811D01*
X0001558818Y0000612956D01*
X0001689359Y0000612956D01*
X0001693154Y0000593878D01*
X0001705943Y0000574737D01*
X0001725084Y0000561947D01*
X0001747663Y0000557456D01*
X0001749974Y0000557456D01*
X0001772553Y0000561947D01*
X0001791116Y0000574351D01*
X0001793624Y0000568295D01*
X0001800657Y0000561262D01*
X0001809846Y0000557456D01*
X0001837568Y0000557456D01*
X0001843818Y0000563706D01*
X0001843818Y0000611456D01*
X0001843031Y0000611456D01*
X0001843031Y0000621456D01*
X0001843818Y0000621456D01*
X0001843818Y0000622244D01*
X0001853818Y0000622244D01*
X0001853818Y0000621456D01*
X0001854606Y0000621456D01*
X0001854606Y0000611456D01*
X0001853818Y0000611456D01*
X0001853818Y0000563706D01*
X0001860068Y0000557456D01*
X0001887791Y0000557456D01*
X0001896980Y0000561262D01*
X0001897244Y0000561526D01*
X0001897244Y0000528409D01*
X0000998068Y0000528409D01*
X0000998068Y0000918716D01*
X0001016397Y0000918716D01*
X0001025586Y0000922522D01*
X0001032619Y0000929555D01*
X0001036424Y0000938743D01*
X0001036424Y0000961994D01*
X0001030175Y0000968244D01*
X0000991818Y0000968244D01*
X0000991818Y0000924966D01*
X0000998068Y0000918716D01*
X0000998068Y0000528409D01*
X0000957239Y0000528409D01*
X0000957239Y0000918716D01*
X0000975568Y0000918716D01*
X0000981818Y0000924966D01*
X0000981818Y0000968244D01*
X0000943462Y0000968244D01*
X0000937212Y0000961994D01*
X0000937212Y0000938743D01*
X0000941018Y0000929555D01*
X0000948051Y0000922522D01*
X0000957239Y0000918716D01*
X0000957239Y0000528409D01*
X0000772047Y0000528409D01*
X0000772047Y0001120503D01*
X0000946049Y0001120503D01*
X0000946049Y0001120503D01*
G37*
X0000946049Y0001120503D02*
X0000944439Y0001119468D01*
X0000940672Y0001113956D01*
X0000930818Y0001113956D01*
X0000927370Y0001113270D01*
X0000923528Y0001113274D01*
X0000919947Y0001111794D01*
X0000916468Y0001111102D01*
X0000913544Y0001109148D01*
X0000909993Y0001107681D01*
X0000907251Y0001104943D01*
X0000904302Y0001102973D01*
X0000902349Y0001100049D01*
X0000899630Y0001097335D01*
X0000898144Y0001093756D01*
X0000896173Y0001090807D01*
X0000895487Y0001087358D01*
X0000894014Y0001083810D01*
X0000894010Y0001079935D01*
X0000893318Y0001076456D01*
X0000894004Y0001073008D01*
X0000894001Y0001069166D01*
X0000895481Y0001065584D01*
X0000896173Y0001062106D01*
X0000898126Y0001059182D01*
X0000899593Y0001055632D01*
X0000902331Y0001052889D01*
X0000904302Y0001049940D01*
X0000907224Y0001047986D01*
X0000909939Y0001045268D01*
X0000913519Y0001043781D01*
X0000916468Y0001041811D01*
X0000919916Y0001041125D01*
X0000923464Y0001039652D01*
X0000927340Y0001039647D01*
X0000930818Y0001038956D01*
X0000937322Y0001038956D01*
X0000938466Y0001032877D01*
X0000943941Y0001024368D01*
X0000946622Y0001022535D01*
X0000941018Y0001016932D01*
X0000937212Y0001007744D01*
X0000937212Y0000984494D01*
X0000943462Y0000978243D01*
X0000981818Y0000978243D01*
X0000981818Y0000979031D01*
X0000991818Y0000979031D01*
X0000991818Y0000978243D01*
X0001030175Y0000978243D01*
X0001036424Y0000984494D01*
X0001036424Y0001007744D01*
X0001032619Y0001016932D01*
X0001027058Y0001022493D01*
X0001029198Y0001023870D01*
X0001034906Y0001032224D01*
X0001036269Y0001038956D01*
X0001054818Y0001038956D01*
X0001058267Y0001039642D01*
X0001062108Y0001039639D01*
X0001065690Y0001041118D01*
X0001069169Y0001041811D01*
X0001072092Y0001043763D01*
X0001075643Y0001045231D01*
X0001078386Y0001047968D01*
X0001081335Y0001049940D01*
X0001083288Y0001052863D01*
X0001086007Y0001055577D01*
X0001087493Y0001059156D01*
X0001089464Y0001062106D01*
X0001090150Y0001065554D01*
X0001091623Y0001069102D01*
X0001091626Y0001072977D01*
X0001092318Y0001076456D01*
X0001091632Y0001079905D01*
X0001091636Y0001083746D01*
X0001090156Y0001087328D01*
X0001089464Y0001090807D01*
X0001087510Y0001093730D01*
X0001086043Y0001097281D01*
X0001083305Y0001100024D01*
X0001081335Y0001102973D01*
X0001078411Y0001104926D01*
X0001075697Y0001107645D01*
X0001072118Y0001109131D01*
X0001069169Y0001111102D01*
X0001065721Y0001111788D01*
X0001062173Y0001113261D01*
X0001058297Y0001113264D01*
X0001054818Y0001113956D01*
X0001032921Y0001113956D01*
X0001029696Y0001118970D01*
X0001027450Y0001120503D01*
X0001724553Y0001120503D01*
X0001723329Y0001114456D01*
X0001723329Y0001026456D01*
X0001725072Y0001017192D01*
X0001730547Y0001008683D01*
X0001738900Y0001002975D01*
X0001748818Y0001000966D01*
X0001836818Y0001000966D01*
X0001846082Y0001002710D01*
X0001854592Y0001008185D01*
X0001860299Y0001016539D01*
X0001862308Y0001026456D01*
X0001862308Y0001114456D01*
X0001861170Y0001120503D01*
X0001897244Y0001120503D01*
X0001897244Y0000949869D01*
X0001891694Y0000958175D01*
X0001872553Y0000970965D01*
X0001849974Y0000975456D01*
X0001847663Y0000975456D01*
X0001825084Y0000970965D01*
X0001805943Y0000958175D01*
X0001798818Y0000947512D01*
X0001791694Y0000958175D01*
X0001772553Y0000970965D01*
X0001749974Y0000975456D01*
X0001747663Y0000975456D01*
X0001725084Y0000970965D01*
X0001705943Y0000958175D01*
X0001693154Y0000939034D01*
X0001688663Y0000916456D01*
X0001691604Y0000901668D01*
X0001610391Y0000820456D01*
X0001480818Y0000820456D01*
X0001469338Y0000818173D01*
X0001465593Y0000815670D01*
X0001459604Y0000811669D01*
X0001415208Y0000767272D01*
X0001413528Y0000767274D01*
X0001399994Y0000761681D01*
X0001389629Y0000751335D01*
X0001384014Y0000737810D01*
X0001384000Y0000723166D01*
X0001389593Y0000709631D01*
X0001398181Y0000701029D01*
X0001396014Y0000695809D01*
X0001396000Y0000681166D01*
X0001401593Y0000667632D01*
X0001411939Y0000657267D01*
X0001425463Y0000651652D01*
X0001440108Y0000651639D01*
X0001453643Y0000657231D01*
X0001464007Y0000667576D01*
X0001469623Y0000681102D01*
X0001469625Y0000682836D01*
X0001471515Y0000684726D01*
X0001532302Y0000623940D01*
X0001544468Y0000615811D01*
X0001558818Y0000612956D01*
X0001689359Y0000612956D01*
X0001693154Y0000593878D01*
X0001705943Y0000574737D01*
X0001725084Y0000561947D01*
X0001747663Y0000557456D01*
X0001749974Y0000557456D01*
X0001772553Y0000561947D01*
X0001791116Y0000574351D01*
X0001793624Y0000568295D01*
X0001800657Y0000561262D01*
X0001809846Y0000557456D01*
X0001837568Y0000557456D01*
X0001843818Y0000563706D01*
X0001843818Y0000611456D01*
X0001843031Y0000611456D01*
X0001843031Y0000621456D01*
X0001843818Y0000621456D01*
X0001843818Y0000622244D01*
X0001853818Y0000622244D01*
X0001853818Y0000621456D01*
X0001854606Y0000621456D01*
X0001854606Y0000611456D01*
X0001853818Y0000611456D01*
X0001853818Y0000563706D01*
X0001860068Y0000557456D01*
X0001887791Y0000557456D01*
X0001896980Y0000561262D01*
X0001897244Y0000561526D01*
X0001897244Y0000528409D01*
X0000998068Y0000528409D01*
X0000998068Y0000918716D01*
X0001016397Y0000918716D01*
X0001025586Y0000922522D01*
X0001032619Y0000929555D01*
X0001036424Y0000938743D01*
X0001036424Y0000961994D01*
X0001030175Y0000968244D01*
X0000991818Y0000968244D01*
X0000991818Y0000924966D01*
X0000998068Y0000918716D01*
X0000998068Y0000528409D01*
X0000957239Y0000528409D01*
X0000957239Y0000918716D01*
X0000975568Y0000918716D01*
X0000981818Y0000924966D01*
X0000981818Y0000968244D01*
X0000943462Y0000968244D01*
X0000937212Y0000961994D01*
X0000937212Y0000938743D01*
X0000941018Y0000929555D01*
X0000948051Y0000922522D01*
X0000957239Y0000918716D01*
X0000957239Y0000528409D01*
X0000772047Y0000528409D01*
X0000772047Y0001120503D01*
X0000946049Y0001120503D01*
G04 #@! TF.FileFunction,Copper,L1,Top,Signal*
G04 Gerber Fmt 4.6, Leading zero omitted, Abs format (unit mm)*
G04 Created by KiCad (PCBNEW 4.0.1-3.201512221401+6198~38~ubuntu15.10.1-stable) date søn 24 jan 2016 12:57:00 CET*
G01*
G04 APERTURE LIST*
G04 APERTURE END LIST*
D48*
D49*
X0000744094Y0001248488D02*
X0001925196Y0001248488D01*
X0000744094Y0001896488D02*
X0000744094Y0001248488D01*
X0001925196Y0001896488D02*
X0000744094Y0001896488D01*
X0001925196Y0001248488D02*
X0001925196Y0001896488D01*
D50*
X0001848818Y0001364488D03*
D51*
X0001748818Y0001364488D03*
X0001848818Y0001464488D03*
X0001748818Y0001464488D03*
X0001848818Y0001564488D03*
X0001748818Y0001564488D03*
X0001848818Y0001664488D03*
X0001748818Y0001664488D03*
D52*
X0000986818Y0001819700D03*
X0000986818Y0001721275D03*
D53*
X0001792818Y0001818488D03*
D54*
X0001432818Y0001436488D03*
X0001054818Y0001824488D03*
X0001496817Y0001460488D03*
X0000930818Y0001824488D03*
X0001496817Y0001772488D03*
X0001420818Y0001478488D03*
D55*
X0001848818Y0001464488D02*
X0001799817Y0001513488D01*
X0001509818Y0001513488D02*
X0001432818Y0001436488D01*
X0001799817Y0001513488D02*
X0001509818Y0001513488D01*
D56*
X0001054818Y0001824488D02*
X0000991606Y0001824488D01*
X0000991606Y0001824488D02*
X0000986818Y0001819700D01*
X0001558818Y0001398488D02*
X0001496817Y0001460488D01*
X0001748818Y0001364488D02*
X0001714817Y0001398488D01*
X0001714817Y0001398488D02*
X0001558818Y0001398488D01*
X0000930818Y0001824488D02*
X0000982031Y0001824488D01*
X0000982031Y0001824488D02*
X0000986818Y0001819700D01*
D55*
X0001420818Y0001478488D02*
X0001480818Y0001538488D01*
X0001480818Y0001538488D02*
X0001622818Y0001538488D01*
X0001622818Y0001538488D02*
X0001708817Y0001624488D01*
X0001708817Y0001624488D02*
X0001748818Y0001664488D01*
G36*
X0000946049Y0001868535D02*
X0000944439Y0001867498D01*
X0000940672Y0001861988D01*
X0000930818Y0001861988D01*
X0000927370Y0001861302D01*
X0000923528Y0001861305D01*
X0000919947Y0001859824D01*
X0000916468Y0001859133D01*
X0000913544Y0001857179D01*
X0000909993Y0001855712D01*
X0000907251Y0001852975D01*
X0000904302Y0001851004D01*
X0000902349Y0001848081D01*
X0000899630Y0001845367D01*
X0000898144Y0001841788D01*
X0000896173Y0001838838D01*
X0000895487Y0001835390D01*
X0000894014Y0001831842D01*
X0000894010Y0001827967D01*
X0000893318Y0001824488D01*
X0000894004Y0001821039D01*
X0000894001Y0001817198D01*
X0000895481Y0001813616D01*
X0000896173Y0001810137D01*
X0000898126Y0001807214D01*
X0000899593Y0001803663D01*
X0000902331Y0001800920D01*
X0000904302Y0001797971D01*
X0000907224Y0001796018D01*
X0000909939Y0001793299D01*
X0000913519Y0001791813D01*
X0000916468Y0001789842D01*
X0000919916Y0001789156D01*
X0000923464Y0001787683D01*
X0000927340Y0001787679D01*
X0000930818Y0001786988D01*
X0000937322Y0001786988D01*
X0000938466Y0001780908D01*
X0000943941Y0001772399D01*
X0000946622Y0001770568D01*
X0000941018Y0001764964D01*
X0000937212Y0001755775D01*
X0000937212Y0001732525D01*
X0000943462Y0001726275D01*
X0000981818Y0001726275D01*
X0000981818Y0001727062D01*
X0000991818Y0001727062D01*
X0000991818Y0001726275D01*
X0001030175Y0001726275D01*
X0001036424Y0001732525D01*
X0001036424Y0001755775D01*
X0001032619Y0001764964D01*
X0001027058Y0001770525D01*
X0001029198Y0001771901D01*
X0001034906Y0001780256D01*
X0001036269Y0001786988D01*
X0001054818Y0001786988D01*
X0001058267Y0001787674D01*
X0001062108Y0001787670D01*
X0001065690Y0001789150D01*
X0001069169Y0001789842D01*
X0001072092Y0001791796D01*
X0001075643Y0001793263D01*
X0001078386Y0001796001D01*
X0001081335Y0001797971D01*
X0001083288Y0001800895D01*
X0001086007Y0001803609D01*
X0001087493Y0001807188D01*
X0001089464Y0001810137D01*
X0001090150Y0001813585D01*
X0001091623Y0001817133D01*
X0001091626Y0001821009D01*
X0001092318Y0001824488D01*
X0001091632Y0001827936D01*
X0001091636Y0001831778D01*
X0001090156Y0001835359D01*
X0001089464Y0001838838D01*
X0001087510Y0001841762D01*
X0001086043Y0001845312D01*
X0001083305Y0001848055D01*
X0001081335Y0001851004D01*
X0001078411Y0001852958D01*
X0001075697Y0001855676D01*
X0001072118Y0001857163D01*
X0001069169Y0001859133D01*
X0001065721Y0001859819D01*
X0001062173Y0001861292D01*
X0001058297Y0001861296D01*
X0001054818Y0001861988D01*
X0001032921Y0001861988D01*
X0001029696Y0001867001D01*
X0001027450Y0001868535D01*
X0001724553Y0001868535D01*
X0001723329Y0001862488D01*
X0001723329Y0001774488D01*
X0001725072Y0001765222D01*
X0001730547Y0001756714D01*
X0001738900Y0001751006D01*
X0001748818Y0001748998D01*
X0001836818Y0001748998D01*
X0001846082Y0001750741D01*
X0001854592Y0001756216D01*
X0001860299Y0001764571D01*
X0001862308Y0001774488D01*
X0001862308Y0001862488D01*
X0001861170Y0001868535D01*
X0001897244Y0001868535D01*
X0001897244Y0001697901D01*
X0001891694Y0001706206D01*
X0001872553Y0001718997D01*
X0001849974Y0001723488D01*
X0001847663Y0001723488D01*
X0001825084Y0001718997D01*
X0001805943Y0001706206D01*
X0001798818Y0001695543D01*
X0001791694Y0001706206D01*
X0001772553Y0001718997D01*
X0001749974Y0001723488D01*
X0001747663Y0001723488D01*
X0001725084Y0001718997D01*
X0001705943Y0001706206D01*
X0001693154Y0001687066D01*
X0001688663Y0001664488D01*
X0001691604Y0001649700D01*
X0001610391Y0001568488D01*
X0001480818Y0001568488D01*
X0001469338Y0001566204D01*
X0001465593Y0001563702D01*
X0001459604Y0001559701D01*
X0001415208Y0001515304D01*
X0001413528Y0001515305D01*
X0001399994Y0001509712D01*
X0001389629Y0001499366D01*
X0001384014Y0001485842D01*
X0001384000Y0001471198D01*
X0001389593Y0001457662D01*
X0001398181Y0001449061D01*
X0001396014Y0001443842D01*
X0001396000Y0001429198D01*
X0001401593Y0001415663D01*
X0001411939Y0001405299D01*
X0001425463Y0001399683D01*
X0001440108Y0001399670D01*
X0001453643Y0001405263D01*
X0001464007Y0001415609D01*
X0001469623Y0001429133D01*
X0001469625Y0001430867D01*
X0001471515Y0001432758D01*
X0001532302Y0001371971D01*
X0001544468Y0001363842D01*
X0001558818Y0001360988D01*
X0001689359Y0001360988D01*
X0001693154Y0001341909D01*
X0001705943Y0001322767D01*
X0001725084Y0001309979D01*
X0001747663Y0001305488D01*
X0001749974Y0001305488D01*
X0001772553Y0001309979D01*
X0001791116Y0001322381D01*
X0001793624Y0001316326D01*
X0001800657Y0001309294D01*
X0001809846Y0001305488D01*
X0001837568Y0001305488D01*
X0001843818Y0001311737D01*
X0001843818Y0001359488D01*
X0001843031Y0001359488D01*
X0001843031Y0001369488D01*
X0001843818Y0001369488D01*
X0001843818Y0001370275D01*
X0001853818Y0001370275D01*
X0001853818Y0001369488D01*
X0001854606Y0001369488D01*
X0001854606Y0001359488D01*
X0001853818Y0001359488D01*
X0001853818Y0001311737D01*
X0001860068Y0001305488D01*
X0001887791Y0001305488D01*
X0001896980Y0001309294D01*
X0001897244Y0001309558D01*
X0001897244Y0001276440D01*
X0000998068Y0001276440D01*
X0000998068Y0001666748D01*
X0001016397Y0001666748D01*
X0001025586Y0001670554D01*
X0001032619Y0001677586D01*
X0001036424Y0001686775D01*
X0001036424Y0001710025D01*
X0001030175Y0001716275D01*
X0000991818Y0001716275D01*
X0000991818Y0001672998D01*
X0000998068Y0001666748D01*
X0000998068Y0001276440D01*
X0000957239Y0001276440D01*
X0000957239Y0001666748D01*
X0000975568Y0001666748D01*
X0000981818Y0001672998D01*
X0000981818Y0001716275D01*
X0000943462Y0001716275D01*
X0000937212Y0001710025D01*
X0000937212Y0001686775D01*
X0000941018Y0001677586D01*
X0000948051Y0001670554D01*
X0000957239Y0001666748D01*
X0000957239Y0001276440D01*
X0000772047Y0001276440D01*
X0000772047Y0001868535D01*
X0000946049Y0001868535D01*
X0000946049Y0001868535D01*
G37*
X0000946049Y0001868535D02*
X0000944439Y0001867498D01*
X0000940672Y0001861988D01*
X0000930818Y0001861988D01*
X0000927370Y0001861302D01*
X0000923528Y0001861305D01*
X0000919947Y0001859824D01*
X0000916468Y0001859133D01*
X0000913544Y0001857179D01*
X0000909993Y0001855712D01*
X0000907251Y0001852975D01*
X0000904302Y0001851004D01*
X0000902349Y0001848081D01*
X0000899630Y0001845367D01*
X0000898144Y0001841788D01*
X0000896173Y0001838838D01*
X0000895487Y0001835390D01*
X0000894014Y0001831842D01*
X0000894010Y0001827967D01*
X0000893318Y0001824488D01*
X0000894004Y0001821039D01*
X0000894001Y0001817198D01*
X0000895481Y0001813616D01*
X0000896173Y0001810137D01*
X0000898126Y0001807214D01*
X0000899593Y0001803663D01*
X0000902331Y0001800920D01*
X0000904302Y0001797971D01*
X0000907224Y0001796018D01*
X0000909939Y0001793299D01*
X0000913519Y0001791813D01*
X0000916468Y0001789842D01*
X0000919916Y0001789156D01*
X0000923464Y0001787683D01*
X0000927340Y0001787679D01*
X0000930818Y0001786988D01*
X0000937322Y0001786988D01*
X0000938466Y0001780908D01*
X0000943941Y0001772399D01*
X0000946622Y0001770568D01*
X0000941018Y0001764964D01*
X0000937212Y0001755775D01*
X0000937212Y0001732525D01*
X0000943462Y0001726275D01*
X0000981818Y0001726275D01*
X0000981818Y0001727062D01*
X0000991818Y0001727062D01*
X0000991818Y0001726275D01*
X0001030175Y0001726275D01*
X0001036424Y0001732525D01*
X0001036424Y0001755775D01*
X0001032619Y0001764964D01*
X0001027058Y0001770525D01*
X0001029198Y0001771901D01*
X0001034906Y0001780256D01*
X0001036269Y0001786988D01*
X0001054818Y0001786988D01*
X0001058267Y0001787674D01*
X0001062108Y0001787670D01*
X0001065690Y0001789150D01*
X0001069169Y0001789842D01*
X0001072092Y0001791796D01*
X0001075643Y0001793263D01*
X0001078386Y0001796001D01*
X0001081335Y0001797971D01*
X0001083288Y0001800895D01*
X0001086007Y0001803609D01*
X0001087493Y0001807188D01*
X0001089464Y0001810137D01*
X0001090150Y0001813585D01*
X0001091623Y0001817133D01*
X0001091626Y0001821009D01*
X0001092318Y0001824488D01*
X0001091632Y0001827936D01*
X0001091636Y0001831778D01*
X0001090156Y0001835359D01*
X0001089464Y0001838838D01*
X0001087510Y0001841762D01*
X0001086043Y0001845312D01*
X0001083305Y0001848055D01*
X0001081335Y0001851004D01*
X0001078411Y0001852958D01*
X0001075697Y0001855676D01*
X0001072118Y0001857163D01*
X0001069169Y0001859133D01*
X0001065721Y0001859819D01*
X0001062173Y0001861292D01*
X0001058297Y0001861296D01*
X0001054818Y0001861988D01*
X0001032921Y0001861988D01*
X0001029696Y0001867001D01*
X0001027450Y0001868535D01*
X0001724553Y0001868535D01*
X0001723329Y0001862488D01*
X0001723329Y0001774488D01*
X0001725072Y0001765222D01*
X0001730547Y0001756714D01*
X0001738900Y0001751006D01*
X0001748818Y0001748998D01*
X0001836818Y0001748998D01*
X0001846082Y0001750741D01*
X0001854592Y0001756216D01*
X0001860299Y0001764571D01*
X0001862308Y0001774488D01*
X0001862308Y0001862488D01*
X0001861170Y0001868535D01*
X0001897244Y0001868535D01*
X0001897244Y0001697901D01*
X0001891694Y0001706206D01*
X0001872553Y0001718997D01*
X0001849974Y0001723488D01*
X0001847663Y0001723488D01*
X0001825084Y0001718997D01*
X0001805943Y0001706206D01*
X0001798818Y0001695543D01*
X0001791694Y0001706206D01*
X0001772553Y0001718997D01*
X0001749974Y0001723488D01*
X0001747663Y0001723488D01*
X0001725084Y0001718997D01*
X0001705943Y0001706206D01*
X0001693154Y0001687066D01*
X0001688663Y0001664488D01*
X0001691604Y0001649700D01*
X0001610391Y0001568488D01*
X0001480818Y0001568488D01*
X0001469338Y0001566204D01*
X0001465593Y0001563702D01*
X0001459604Y0001559701D01*
X0001415208Y0001515304D01*
X0001413528Y0001515305D01*
X0001399994Y0001509712D01*
X0001389629Y0001499366D01*
X0001384014Y0001485842D01*
X0001384000Y0001471198D01*
X0001389593Y0001457662D01*
X0001398181Y0001449061D01*
X0001396014Y0001443842D01*
X0001396000Y0001429198D01*
X0001401593Y0001415663D01*
X0001411939Y0001405299D01*
X0001425463Y0001399683D01*
X0001440108Y0001399670D01*
X0001453643Y0001405263D01*
X0001464007Y0001415609D01*
X0001469623Y0001429133D01*
X0001469625Y0001430867D01*
X0001471515Y0001432758D01*
X0001532302Y0001371971D01*
X0001544468Y0001363842D01*
X0001558818Y0001360988D01*
X0001689359Y0001360988D01*
X0001693154Y0001341909D01*
X0001705943Y0001322767D01*
X0001725084Y0001309979D01*
X0001747663Y0001305488D01*
X0001749974Y0001305488D01*
X0001772553Y0001309979D01*
X0001791116Y0001322381D01*
X0001793624Y0001316326D01*
X0001800657Y0001309294D01*
X0001809846Y0001305488D01*
X0001837568Y0001305488D01*
X0001843818Y0001311737D01*
X0001843818Y0001359488D01*
X0001843031Y0001359488D01*
X0001843031Y0001369488D01*
X0001843818Y0001369488D01*
X0001843818Y0001370275D01*
X0001853818Y0001370275D01*
X0001853818Y0001369488D01*
X0001854606Y0001369488D01*
X0001854606Y0001359488D01*
X0001853818Y0001359488D01*
X0001853818Y0001311737D01*
X0001860068Y0001305488D01*
X0001887791Y0001305488D01*
X0001896980Y0001309294D01*
X0001897244Y0001309558D01*
X0001897244Y0001276440D01*
X0000998068Y0001276440D01*
X0000998068Y0001666748D01*
X0001016397Y0001666748D01*
X0001025586Y0001670554D01*
X0001032619Y0001677586D01*
X0001036424Y0001686775D01*
X0001036424Y0001710025D01*
X0001030175Y0001716275D01*
X0000991818Y0001716275D01*
X0000991818Y0001672998D01*
X0000998068Y0001666748D01*
X0000998068Y0001276440D01*
X0000957239Y0001276440D01*
X0000957239Y0001666748D01*
X0000975568Y0001666748D01*
X0000981818Y0001672998D01*
X0000981818Y0001716275D01*
X0000943462Y0001716275D01*
X0000937212Y0001710025D01*
X0000937212Y0001686775D01*
X0000941018Y0001677586D01*
X0000948051Y0001670554D01*
X0000957239Y0001666748D01*
X0000957239Y0001276440D01*
X0000772047Y0001276440D01*
X0000772047Y0001868535D01*
X0000946049Y0001868535D01*
G04 #@! TF.FileFunction,Copper,L1,Top,Signal*
G04 Gerber Fmt 4.6, Leading zero omitted, Abs format (unit mm)*
G04 Created by KiCad (PCBNEW 4.0.1-3.201512221401+6198~38~ubuntu15.10.1-stable) date lør 23 jan 2016 16:05:11 CET*
G01*
G04 APERTURE LIST*
G04 APERTURE END LIST*
D67*
D68*
X0000514623Y0000091394D02*
X0000514623Y0000150449D01*
X0000539932Y0000091394D02*
X0000539932Y0000122328D01*
X0000537120Y0000127952D01*
X0000531495Y0000130764D01*
X0000523059Y0000130764D01*
X0000517435Y0000127952D01*
X0000514623Y0000125140D01*
X0000559617Y0000130764D02*
X0000582114Y0000130764D01*
X0000568053Y0000150449D02*
X0000568053Y0000099831D01*
X0000570866Y0000094206D01*
X0000576490Y0000091394D01*
X0000582114Y0000091394D01*
X0000593363Y0000130764D02*
X0000615860Y0000130764D01*
X0000601799Y0000150449D02*
X0000601799Y0000099831D01*
X0000604611Y0000094206D01*
X0000610236Y0000091394D01*
X0000615860Y0000091394D01*
X0000635545Y0000130764D02*
X0000635545Y0000071709D01*
X0000635545Y0000127952D02*
X0000641169Y0000130764D01*
X0000652418Y0000130764D01*
X0000658042Y0000127952D01*
X0000660854Y0000125140D01*
X0000663667Y0000119516D01*
X0000663667Y0000102643D01*
X0000660854Y0000097019D01*
X0000658042Y0000094206D01*
X0000652418Y0000091394D01*
X0000641169Y0000091394D01*
X0000635545Y0000094206D01*
X0000688976Y0000097019D02*
X0000691788Y0000094206D01*
X0000688976Y0000091394D01*
X0000686164Y0000094206D01*
X0000688976Y0000097019D01*
X0000688976Y0000091394D01*
X0000688976Y0000127952D02*
X0000691788Y0000125140D01*
X0000688976Y0000122328D01*
X0000686164Y0000125140D01*
X0000688976Y0000127952D01*
X0000688976Y0000122328D01*
X0000759280Y0000153262D02*
X0000708661Y0000077334D01*
X0000821147Y0000153262D02*
X0000770528Y0000077334D01*
X0000849268Y0000091394D02*
X0000843644Y0000094206D01*
X0000840832Y0000097019D01*
X0000838020Y0000102643D01*
X0000838020Y0000119516D01*
X0000840832Y0000125140D01*
X0000843644Y0000127952D01*
X0000849268Y0000130764D01*
X0000857705Y0000130764D01*
X0000863329Y0000127952D01*
X0000866141Y0000125140D01*
X0000868953Y0000119516D01*
X0000868953Y0000102643D01*
X0000866141Y0000097019D01*
X0000863329Y0000094206D01*
X0000857705Y0000091394D01*
X0000849268Y0000091394D01*
X0000894263Y0000130764D02*
X0000894263Y0000071709D01*
X0000894263Y0000127952D02*
X0000899887Y0000130764D01*
X0000911136Y0000130764D01*
X0000916760Y0000127952D01*
X0000919572Y0000125140D01*
X0000922384Y0000119516D01*
X0000922384Y0000102643D01*
X0000919572Y0000097019D01*
X0000916760Y0000094206D01*
X0000911136Y0000091394D01*
X0000899887Y0000091394D01*
X0000894263Y0000094206D01*
X0000970191Y0000094206D02*
X0000964566Y0000091394D01*
X0000953318Y0000091394D01*
X0000947694Y0000094206D01*
X0000944881Y0000099831D01*
X0000944881Y0000122328D01*
X0000947694Y0000127952D01*
X0000953318Y0000130764D01*
X0000964566Y0000130764D01*
X0000970191Y0000127952D01*
X0000973003Y0000122328D01*
X0000973003Y0000116704D01*
X0000944881Y0000111079D01*
X0000998312Y0000130764D02*
X0000998312Y0000091394D01*
X0000998312Y0000125140D02*
X0001001124Y0000127952D01*
X0001006749Y0000130764D01*
X0001015185Y0000130764D01*
X0001020809Y0000127952D01*
X0001023622Y0000122328D01*
X0001023622Y0000091394D01*
X0001051743Y0000091394D02*
X0001051743Y0000150449D01*
X0001077052Y0000091394D02*
X0001077052Y0000122328D01*
X0001074240Y0000127952D01*
X0001068616Y0000130764D01*
X0001060180Y0000130764D01*
X0001054555Y0000127952D01*
X0001051743Y0000125140D01*
X0001130483Y0000091394D02*
X0001130483Y0000122328D01*
X0001127671Y0000127952D01*
X0001122047Y0000130764D01*
X0001110798Y0000130764D01*
X0001105174Y0000127952D01*
X0001130483Y0000094206D02*
X0001124859Y0000091394D01*
X0001110798Y0000091394D01*
X0001105174Y0000094206D01*
X0001102362Y0000099831D01*
X0001102362Y0000105455D01*
X0001105174Y0000111079D01*
X0001110798Y0000113891D01*
X0001124859Y0000113891D01*
X0001130483Y0000116704D01*
X0001158605Y0000091394D02*
X0001158605Y0000130764D01*
X0001158605Y0000119516D02*
X0001161417Y0000125140D01*
X0001164229Y0000127952D01*
X0001169853Y0000130764D01*
X0001175478Y0000130764D01*
X0001220472Y0000091394D02*
X0001220472Y0000150449D01*
X0001220472Y0000094206D02*
X0001214848Y0000091394D01*
X0001203599Y0000091394D01*
X0001197975Y0000094206D01*
X0001195163Y0000097019D01*
X0001192350Y0000102643D01*
X0001192350Y0000119516D01*
X0001195163Y0000125140D01*
X0001197975Y0000127952D01*
X0001203599Y0000130764D01*
X0001214848Y0000130764D01*
X0001220472Y0000127952D01*
X0001242969Y0000130764D02*
X0001254218Y0000091394D01*
X0001265466Y0000119516D01*
X0001276715Y0000091394D01*
X0001287964Y0000130764D01*
X0001335770Y0000091394D02*
X0001335770Y0000122328D01*
X0001332958Y0000127952D01*
X0001327334Y0000130764D01*
X0001316085Y0000130764D01*
X0001310461Y0000127952D01*
X0001335770Y0000094206D02*
X0001330146Y0000091394D01*
X0001316085Y0000091394D01*
X0001310461Y0000094206D01*
X0001307649Y0000099831D01*
X0001307649Y0000105455D01*
X0001310461Y0000111079D01*
X0001316085Y0000113891D01*
X0001330146Y0000113891D01*
X0001335770Y0000116704D01*
X0001363892Y0000091394D02*
X0001363892Y0000130764D01*
X0001363892Y0000119516D02*
X0001366704Y0000125140D01*
X0001369516Y0000127952D01*
X0001375140Y0000130764D01*
X0001380764Y0000130764D01*
X0001422947Y0000094206D02*
X0001417322Y0000091394D01*
X0001406074Y0000091394D01*
X0001400450Y0000094206D01*
X0001397637Y0000099831D01*
X0001397637Y0000122328D01*
X0001400450Y0000127952D01*
X0001406074Y0000130764D01*
X0001417322Y0000130764D01*
X0001422947Y0000127952D01*
X0001425759Y0000122328D01*
X0001425759Y0000116704D01*
X0001397637Y0000111079D01*
X0001451068Y0000097019D02*
X0001453880Y0000094206D01*
X0001451068Y0000091394D01*
X0001448256Y0000094206D01*
X0001451068Y0000097019D01*
X0001451068Y0000091394D01*
X0001479190Y0000091394D02*
X0001479190Y0000130764D01*
X0001479190Y0000150449D02*
X0001476377Y0000147637D01*
X0001479190Y0000144825D01*
X0001482002Y0000147637D01*
X0001479190Y0000150449D01*
X0001479190Y0000144825D01*
X0001515748Y0000091394D02*
X0001510123Y0000094206D01*
X0001507311Y0000097019D01*
X0001504499Y0000102643D01*
X0001504499Y0000119516D01*
X0001507311Y0000125140D01*
X0001510123Y0000127952D01*
X0001515748Y0000130764D01*
X0001524184Y0000130764D01*
X0001529808Y0000127952D01*
X0001532620Y0000125140D01*
X0001535433Y0000119516D01*
X0001535433Y0000102643D01*
X0001532620Y0000097019D01*
X0001529808Y0000094206D01*
X0001524184Y0000091394D01*
X0001515748Y0000091394D01*
X0000558211Y0000288245D02*
X0000558211Y0000347300D01*
X0000583520Y0000288245D02*
X0000583520Y0000319178D01*
X0000580708Y0000324803D01*
X0000575084Y0000327615D01*
X0000566647Y0000327615D01*
X0000561023Y0000324803D01*
X0000558211Y0000321990D01*
X0000603205Y0000327615D02*
X0000625703Y0000327615D01*
X0000611642Y0000347300D02*
X0000611642Y0000296681D01*
X0000614454Y0000291057D01*
X0000620078Y0000288245D01*
X0000625703Y0000288245D01*
X0000636951Y0000327615D02*
X0000659448Y0000327615D01*
X0000645388Y0000347300D02*
X0000645388Y0000296681D01*
X0000648200Y0000291057D01*
X0000653824Y0000288245D01*
X0000659448Y0000288245D01*
X0000679133Y0000327615D02*
X0000679133Y0000268560D01*
X0000679133Y0000324803D02*
X0000684758Y0000327615D01*
X0000696006Y0000327615D01*
X0000701631Y0000324803D01*
X0000704443Y0000321990D01*
X0000707255Y0000316366D01*
X0000707255Y0000299493D01*
X0000704443Y0000293869D01*
X0000701631Y0000291057D01*
X0000696006Y0000288245D01*
X0000684758Y0000288245D01*
X0000679133Y0000291057D01*
X0000732564Y0000293869D02*
X0000735376Y0000291057D01*
X0000732564Y0000288245D01*
X0000729752Y0000291057D01*
X0000732564Y0000293869D01*
X0000732564Y0000288245D01*
X0000732564Y0000324803D02*
X0000735376Y0000321990D01*
X0000732564Y0000319178D01*
X0000729752Y0000321990D01*
X0000732564Y0000324803D01*
X0000732564Y0000319178D01*
X0000802868Y0000350112D02*
X0000752249Y0000274184D01*
X0000864735Y0000350112D02*
X0000814117Y0000274184D01*
X0000884420Y0000288245D02*
X0000884420Y0000327615D01*
X0000884420Y0000321990D02*
X0000887232Y0000324803D01*
X0000892857Y0000327615D01*
X0000901293Y0000327615D01*
X0000906917Y0000324803D01*
X0000909730Y0000319178D01*
X0000909730Y0000288245D01*
X0000909730Y0000319178D02*
X0000912542Y0000324803D01*
X0000918166Y0000327615D01*
X0000926602Y0000327615D01*
X0000932227Y0000324803D01*
X0000935039Y0000319178D01*
X0000935039Y0000288245D01*
X0000957536Y0000327615D02*
X0000971597Y0000288245D01*
X0000985658Y0000327615D02*
X0000971597Y0000288245D01*
X0000965973Y0000274184D01*
X0000963160Y0000271372D01*
X0000957536Y0000268560D01*
X0001005343Y0000291057D02*
X0001010967Y0000288245D01*
X0001022216Y0000288245D01*
X0001027840Y0000291057D01*
X0001030652Y0000296681D01*
X0001030652Y0000299493D01*
X0001027840Y0000305118D01*
X0001022216Y0000307930D01*
X0001013779Y0000307930D01*
X0001008155Y0000310742D01*
X0001005343Y0000316366D01*
X0001005343Y0000319178D01*
X0001008155Y0000324803D01*
X0001013779Y0000327615D01*
X0001022216Y0000327615D01*
X0001027840Y0000324803D01*
X0001078458Y0000291057D02*
X0001072834Y0000288245D01*
X0001061586Y0000288245D01*
X0001055961Y0000291057D01*
X0001053149Y0000296681D01*
X0001053149Y0000319178D01*
X0001055961Y0000324803D01*
X0001061586Y0000327615D01*
X0001072834Y0000327615D01*
X0001078458Y0000324803D01*
X0001081271Y0000319178D01*
X0001081271Y0000313554D01*
X0001053149Y0000307930D01*
X0001106580Y0000327615D02*
X0001106580Y0000288245D01*
X0001106580Y0000321990D02*
X0001109392Y0000324803D01*
X0001115016Y0000327615D01*
X0001123453Y0000327615D01*
X0001129077Y0000324803D01*
X0001131889Y0000319178D01*
X0001131889Y0000288245D01*
X0001157199Y0000291057D02*
X0001162823Y0000288245D01*
X0001174072Y0000288245D01*
X0001179696Y0000291057D01*
X0001182508Y0000296681D01*
X0001182508Y0000299493D01*
X0001179696Y0000305118D01*
X0001174072Y0000307930D01*
X0001165635Y0000307930D01*
X0001160011Y0000310742D01*
X0001157199Y0000316366D01*
X0001157199Y0000319178D01*
X0001160011Y0000324803D01*
X0001165635Y0000327615D01*
X0001174072Y0000327615D01*
X0001179696Y0000324803D01*
X0001216254Y0000288245D02*
X0001210629Y0000291057D01*
X0001207817Y0000293869D01*
X0001205005Y0000299493D01*
X0001205005Y0000316366D01*
X0001207817Y0000321990D01*
X0001210629Y0000324803D01*
X0001216254Y0000327615D01*
X0001224690Y0000327615D01*
X0001230314Y0000324803D01*
X0001233127Y0000321990D01*
X0001235939Y0000316366D01*
X0001235939Y0000299493D01*
X0001233127Y0000293869D01*
X0001230314Y0000291057D01*
X0001224690Y0000288245D01*
X0001216254Y0000288245D01*
X0001261248Y0000288245D02*
X0001261248Y0000327615D01*
X0001261248Y0000316366D02*
X0001264060Y0000321990D01*
X0001266872Y0000324803D01*
X0001272497Y0000327615D01*
X0001278121Y0000327615D01*
X0001294994Y0000291057D02*
X0001300618Y0000288245D01*
X0001311867Y0000288245D01*
X0001317491Y0000291057D01*
X0001320303Y0000296681D01*
X0001320303Y0000299493D01*
X0001317491Y0000305118D01*
X0001311867Y0000307930D01*
X0001303430Y0000307930D01*
X0001297806Y0000310742D01*
X0001294994Y0000316366D01*
X0001294994Y0000319178D01*
X0001297806Y0000324803D01*
X0001303430Y0000327615D01*
X0001311867Y0000327615D01*
X0001317491Y0000324803D01*
X0001345613Y0000293869D02*
X0001348425Y0000291057D01*
X0001345613Y0000288245D01*
X0001342800Y0000291057D01*
X0001345613Y0000293869D01*
X0001345613Y0000288245D01*
X0001382171Y0000288245D02*
X0001376546Y0000291057D01*
X0001373734Y0000293869D01*
X0001370922Y0000299493D01*
X0001370922Y0000316366D01*
X0001373734Y0000321990D01*
X0001376546Y0000324803D01*
X0001382171Y0000327615D01*
X0001390607Y0000327615D01*
X0001396231Y0000324803D01*
X0001399043Y0000321990D01*
X0001401856Y0000316366D01*
X0001401856Y0000299493D01*
X0001399043Y0000293869D01*
X0001396231Y0000291057D01*
X0001390607Y0000288245D01*
X0001382171Y0000288245D01*
X0001427165Y0000288245D02*
X0001427165Y0000327615D01*
X0001427165Y0000316366D02*
X0001429977Y0000321990D01*
X0001432789Y0000324803D01*
X0001438414Y0000327615D01*
X0001444038Y0000327615D01*
X0001489032Y0000327615D02*
X0001489032Y0000279808D01*
X0001486220Y0000274184D01*
X0001483408Y0000271372D01*
X0001477784Y0000268560D01*
X0001469347Y0000268560D01*
X0001463723Y0000271372D01*
X0001489032Y0000291057D02*
X0001483408Y0000288245D01*
X0001472159Y0000288245D01*
X0001466535Y0000291057D01*
X0001463723Y0000293869D01*
X0001460911Y0000299493D01*
X0001460911Y0000316366D01*
X0001463723Y0000321990D01*
X0001466535Y0000324803D01*
X0001472159Y0000327615D01*
X0001483408Y0000327615D01*
X0001489032Y0000324803D01*
D69*
X0000039370Y0000000000D02*
X0000039370Y0000393700D01*
X0001929133Y0000000000D02*
X0000039370Y0000000000D01*
X0001929133Y0000393700D02*
X0001929133Y0000000000D01*
X0000039370Y0000393700D02*
X0001929133Y0000393700D01*
M02*
