%MOIN*%
%OFA0B0*%
%FSLAX46Y46*%
%IPPOS*%
%LPD*%
%AMREC170*
4,1,3,
0.041874015748031505,-0.041874015748031505,
0.041874015748031505,0.041874015748031505,
-0.041874015748031505,0.041874015748031505,
-0.041874015748031505,-0.041874015748031505,
0*
%
%AMOBR180*
4,1,79,
-0.041874015748031505,0.0000000000000000025639592872548832,
-0.041744932132226575,0.0032853974100840932,
-0.0413584771282279,0.006550539252629513,
-0.040717033359644446,0.0097752948424071288,
-0.039824555540611241,0.012939782488865913,
-0.0386865460936616,0.016024492073366519,
-0.037310021225462529,0.019010405335550474,
-0.035703467669567425,0.021879113127239506,
-0.033876790362881666,0.024612928910955689,
-0.0318412513784328,0.027194997803306434,
-0.029609400490945358,0.029609400490945355,
-0.027194997803306434,0.0318412513784328,
-0.024612928910955692,0.033876790362881659,
-0.021879113127239495,0.035703467669567425,
-0.019010405335550474,0.037310021225462529,
-0.016024492073366519,0.0386865460936616,
-0.01293978248886591,0.039824555540611241,
-0.009775294842407127,0.040717033359644446,
-0.0065505392526295112,0.0413584771282279,
-0.00328539741008409,0.041744932132226575,
0,0.041874015748031505,
0.00328539741008409,0.041744932132226575,
0.0065505392526295095,0.0413584771282279,
0.009775294842407127,0.040717033359644446,
0.01293978248886591,0.039824555540611241,
0.016024492073366519,0.0386865460936616,
0.019010405335550474,0.037310021225462529,
0.0218791131272395,0.035703467669567425,
0.024612928910955689,0.033876790362881666,
0.027194997803306434,0.0318412513784328,
0.029609400490945355,0.029609400490945358,
0.031841251378432793,0.027194997803306437,
0.033876790362881659,0.024612928910955692,
0.035703467669567425,0.0218791131272395,
0.037310021225462529,0.019010405335550474,
0.0386865460936616,0.016024492073366519,
0.039824555540611241,0.012939782488865913,
0.040717033359644446,0.0097752948424071288,
0.0413584771282279,0.006550539252629513,
0.041744932132226575,0.0032853974100840923,
0.041874015748031505,0.0000000000000000025639592872548832,
0.041744932132226575,-0.003285397410084088,
0.0413584771282279,-0.0065505392526295078,
0.040717033359644446,-0.0097752948424071236,
0.039824555540611241,-0.012939782488865908,
0.038686546093661608,-0.016024492073366512,
0.037310021225462529,-0.01901040533555047,
0.035703467669567432,-0.0218791131272395,
0.033876790362881666,-0.024612928910955682,
0.0318412513784328,-0.02719499780330643,
0.029609400490945358,-0.029609400490945351,
0.027194997803306423,-0.0318412513784328,
0.024612928910955695,-0.033876790362881659,
0.021879113127239488,-0.035703467669567432,
0.019010405335550477,-0.037310021225462522,
0.01602449207336654,-0.038686546093661595,
0.012939782488865915,-0.039824555540611234,
0.0097752948424071132,-0.040717033359644453,
0.0065505392526295165,-0.0413584771282279,
0.0032853974100841136,-0.041744932132226575,
0.0000000000000000051279185745097657,-0.041874015748031505,
-0.0032853974100841041,-0.041744932132226575,
-0.0065505392526295052,-0.0413584771282279,
-0.0097752948424071028,-0.040717033359644453,
-0.012939782488865905,-0.039824555540611241,
-0.016024492073366529,-0.0386865460936616,
-0.01901040533555047,-0.037310021225462529,
-0.021879113127239481,-0.035703467669567439,
-0.024612928910955682,-0.033876790362881666,
-0.027194997803306441,-0.031841251378432793,
-0.029609400490945351,-0.029609400490945365,
-0.0318412513784328,-0.02719499780330643,
-0.033876790362881652,-0.024612928910955695,
-0.035703467669567432,-0.021879113127239488,
-0.037310021225462522,-0.019010405335550481,
-0.038686546093661595,-0.016024492073366543,
-0.039824555540611234,-0.012939782488865917,
-0.040717033359644453,-0.0097752948424071166,
-0.0413584771282279,-0.0065505392526295182,
-0.041744932132226575,-0.0032853974100841166,
0*
%
%AMREC190*
4,1,3,
0.032480314960629919,-0.037401574803149609,
0.032480314960629926,0.037401574803149609,
-0.032480314960629919,0.037401574803149609,
-0.032480314960629926,-0.037401574803149609,
0*
%
%AMREC200*
4,1,3,
0.0518740157480315,-0.0518740157480315,
0.0518740157480315,0.0518740157480315,
-0.0518740157480315,0.0518740157480315,
-0.0518740157480315,-0.0518740157480315,
0*
%
%AMREC410*
4,1,3,
0.041874015748031505,-0.041874015748031505,
0.041874015748031505,0.041874015748031505,
-0.041874015748031505,0.041874015748031505,
-0.041874015748031505,-0.041874015748031505,
0*
%
%AMOBR420*
4,1,79,
-0.041874015748031505,0.0000000000000000025639592872548832,
-0.041744932132226575,0.0032853974100840932,
-0.0413584771282279,0.006550539252629513,
-0.040717033359644446,0.0097752948424071288,
-0.039824555540611241,0.012939782488865913,
-0.0386865460936616,0.016024492073366519,
-0.037310021225462529,0.019010405335550474,
-0.035703467669567425,0.021879113127239506,
-0.033876790362881666,0.024612928910955689,
-0.0318412513784328,0.027194997803306434,
-0.029609400490945358,0.029609400490945355,
-0.027194997803306434,0.0318412513784328,
-0.024612928910955692,0.033876790362881659,
-0.021879113127239495,0.035703467669567425,
-0.019010405335550474,0.037310021225462529,
-0.016024492073366519,0.0386865460936616,
-0.01293978248886591,0.039824555540611241,
-0.009775294842407127,0.040717033359644446,
-0.0065505392526295112,0.0413584771282279,
-0.00328539741008409,0.041744932132226575,
0,0.041874015748031505,
0.00328539741008409,0.041744932132226575,
0.0065505392526295095,0.0413584771282279,
0.009775294842407127,0.040717033359644446,
0.01293978248886591,0.039824555540611241,
0.016024492073366519,0.0386865460936616,
0.019010405335550474,0.037310021225462529,
0.0218791131272395,0.035703467669567425,
0.024612928910955689,0.033876790362881666,
0.027194997803306434,0.0318412513784328,
0.029609400490945355,0.029609400490945358,
0.031841251378432793,0.027194997803306437,
0.033876790362881659,0.024612928910955692,
0.035703467669567425,0.0218791131272395,
0.037310021225462529,0.019010405335550474,
0.0386865460936616,0.016024492073366519,
0.039824555540611241,0.012939782488865913,
0.040717033359644446,0.0097752948424071288,
0.0413584771282279,0.006550539252629513,
0.041744932132226575,0.0032853974100840923,
0.041874015748031505,0.0000000000000000025639592872548832,
0.041744932132226575,-0.003285397410084088,
0.0413584771282279,-0.0065505392526295078,
0.040717033359644446,-0.0097752948424071236,
0.039824555540611241,-0.012939782488865908,
0.038686546093661608,-0.016024492073366512,
0.037310021225462529,-0.01901040533555047,
0.035703467669567432,-0.0218791131272395,
0.033876790362881666,-0.024612928910955682,
0.0318412513784328,-0.02719499780330643,
0.029609400490945358,-0.029609400490945351,
0.027194997803306423,-0.0318412513784328,
0.024612928910955695,-0.033876790362881659,
0.021879113127239488,-0.035703467669567432,
0.019010405335550477,-0.037310021225462522,
0.01602449207336654,-0.038686546093661595,
0.012939782488865915,-0.039824555540611234,
0.0097752948424071132,-0.040717033359644453,
0.0065505392526295165,-0.0413584771282279,
0.0032853974100841136,-0.041744932132226575,
0.0000000000000000051279185745097657,-0.041874015748031505,
-0.0032853974100841041,-0.041744932132226575,
-0.0065505392526295052,-0.0413584771282279,
-0.0097752948424071028,-0.040717033359644453,
-0.012939782488865905,-0.039824555540611241,
-0.016024492073366529,-0.0386865460936616,
-0.01901040533555047,-0.037310021225462529,
-0.021879113127239481,-0.035703467669567439,
-0.024612928910955682,-0.033876790362881666,
-0.027194997803306441,-0.031841251378432793,
-0.029609400490945351,-0.029609400490945365,
-0.0318412513784328,-0.02719499780330643,
-0.033876790362881652,-0.024612928910955695,
-0.035703467669567432,-0.021879113127239488,
-0.037310021225462522,-0.019010405335550481,
-0.038686546093661595,-0.016024492073366543,
-0.039824555540611234,-0.012939782488865917,
-0.040717033359644453,-0.0097752948424071166,
-0.0413584771282279,-0.0065505392526295182,
-0.041744932132226575,-0.0032853974100841166,
0*
%
%AMREC430*
4,1,3,
0.032480314960629919,-0.037401574803149609,
0.032480314960629926,0.037401574803149609,
-0.032480314960629919,0.037401574803149609,
-0.032480314960629926,-0.037401574803149609,
0*
%
%AMREC440*
4,1,3,
0.0518740157480315,-0.0518740157480315,
0.0518740157480315,0.0518740157480315,
-0.0518740157480315,0.0518740157480315,
-0.0518740157480315,-0.0518740157480315,
0*
%
%ADD10C,0.0039370078740157488*%
%ADD11C,0.005905511811023622*%
%ADD12R,0.083748031496063011X0.083748031496063011*%
%ADD13O,0.083748031496063011X0.083748031496063011*%
%ADD14R,0.074803149606299218X0.064960629921259838*%
%ADD15R,0.103748031496063X0.103748031496063*%
%ADD26C,0.0039370078740157488*%
%ADD27C,0.005905511811023622*%
%ADD28REC170*%
%ADD29OBR180*%
%ADD30REC190*%
%ADD31REC200*%
%ADD42C,0.0039370078740157488*%
%ADD43C,0.005905511811023622*%
%ADD44REC410*%
%ADD45OBR420*%
%ADD46REC430*%
%ADD47REC440*%
%ADD58C,0.0039370078740157488*%
%ADD59C,0.005905511811023622*%
%LPD*%
G04 #@! TF.FileFunction,Legend,Top*
G04 Gerber Fmt 4.6, Leading zero omitted, Abs format (unit mm)*
G04 Created by KiCad (PCBNEW 4.0.1-3.201512221401+6198~38~ubuntu15.10.1-stable) date søn 24 jan 2016 12:57:00 CET*
G01*
G04 APERTURE LIST*
G04 APERTURE END LIST*
D10*
D11*
X0000016204Y0001696850D02*
X0000016204Y0000515748D01*
X0000664204Y0001696850D02*
X0000016204Y0001696850D01*
X0000664204Y0000515748D02*
X0000664204Y0001696850D01*
X0000016204Y0000515748D02*
X0000664204Y0000515748D01*
X0000182204Y0000542125D02*
X0000482204Y0000542125D01*
X0000482204Y0000542125D02*
X0000482204Y0000742125D01*
X0000482204Y0000742125D02*
X0000082204Y0000742125D01*
X0000082204Y0000742125D02*
X0000082204Y0000642125D01*
X0000071181Y0000592125D02*
X0000071181Y0000531102D01*
X0000082204Y0000642125D02*
X0000182204Y0000642125D01*
X0000182204Y0000642125D02*
X0000182204Y0000542125D01*
X0000071181Y0000531102D02*
X0000132204Y0000531102D01*
X0000518518Y0001420661D02*
X0000557889Y0001420661D01*
X0000557889Y0001487590D02*
X0000518518Y0001487590D01*
X0000349904Y0001386925D02*
X0000117604Y0001154625D01*
X0000129402Y0001205825D02*
X0000149104Y0001225525D01*
X0000310504Y0001268825D02*
X0000298704Y0001257025D01*
X0000231804Y0001150725D02*
X0000239604Y0001158625D01*
X0000192403Y0001347524D02*
X0000200304Y0001355425D01*
X0000172703Y0001327925D02*
X0000157004Y0001312125D01*
X0000212103Y0001327925D02*
X0000223904Y0001339725D01*
X0000251504Y0001327925D02*
X0000271104Y0001347524D01*
X0000330204Y0001406625D02*
X0000338103Y0001414524D01*
X0000349904Y0001386925D02*
X0000361704Y0001398725D01*
X0000349904Y0001347524D02*
X0000369604Y0001367225D01*
X0000408904Y0001327925D02*
X0000412904Y0001331825D01*
X0000369604Y0001327925D02*
X0000385303Y0001343625D01*
X0000468004Y0001347524D02*
X0000479804Y0001359425D01*
X0000487704Y0001327925D02*
X0000499504Y0001339725D01*
X0000172703Y0001131025D02*
X0000160904Y0001119225D01*
X0000231804Y0001190125D02*
X0000243604Y0001201925D01*
X0000149104Y0001032624D02*
X0000141204Y0001024725D01*
X0000231804Y0001111325D02*
X0000251504Y0001131025D01*
X0000172703Y0001012925D02*
X0000164804Y0001005025D01*
X0000251504Y0001091625D02*
X0000271104Y0001111325D01*
X0000251504Y0001052325D02*
X0000267204Y0001068025D01*
X0000468004Y0001229425D02*
X0000487704Y0001249125D01*
X0000487704Y0001209825D02*
X0000499504Y0001221625D01*
X0000468004Y0001072025D02*
X0000483704Y0001087725D01*
X0000546704Y0001190125D02*
X0000562504Y0001205825D01*
X0000487704Y0001052325D02*
X0000448304Y0001012925D01*
X0000468004Y0001072025D02*
X0000428604Y0001032624D01*
X0000546704Y0001190125D02*
X0000389304Y0001032624D01*
X0000527104Y0001209825D02*
X0000389304Y0001072025D01*
X0000487704Y0001209825D02*
X0000369604Y0001091625D01*
X0000251504Y0001052325D02*
X0000231804Y0001032624D01*
X0000251504Y0001091625D02*
X0000172703Y0001012925D01*
X0000231804Y0001111325D02*
X0000153004Y0001032624D01*
X0000231804Y0001150725D02*
X0000172703Y0001091625D01*
X0000231804Y0001190125D02*
X0000172703Y0001131025D01*
X0000330204Y0001406625D02*
X0000290804Y0001367225D01*
X0000192403Y0001347524D02*
X0000172703Y0001327925D01*
X0000212103Y0001327925D02*
X0000172703Y0001288525D01*
X0000133304Y0001209825D02*
X0000094003Y0001170425D01*
X0000251504Y0001327925D02*
X0000153004Y0001229425D01*
X0000349904Y0001347524D02*
X0000153004Y0001150725D01*
X0000468004Y0001229425D02*
X0000408904Y0001170425D01*
X0000468004Y0001268825D02*
X0000408904Y0001209825D01*
X0000369604Y0001327925D02*
X0000310504Y0001268825D01*
X0000487704Y0001327925D02*
X0000389304Y0001229425D01*
X0000468004Y0001347524D02*
X0000369604Y0001249125D01*
X0000408904Y0001327925D02*
X0000349904Y0001268825D01*
X0000519204Y0000863325D02*
X0000519204Y0000839725D01*
X0000460104Y0000906625D02*
X0000491604Y0000776724D01*
X0000491604Y0000776724D02*
X0000499504Y0000776724D01*
X0000499504Y0000776724D02*
X0000515204Y0000831825D01*
X0000515204Y0000831825D02*
X0000519204Y0000831825D01*
X0000519204Y0000831825D02*
X0000538904Y0000776724D01*
X0000538904Y0000776724D02*
X0000542804Y0000776724D01*
X0000542804Y0000776724D02*
X0000574304Y0000902725D01*
X0000574304Y0000902725D02*
X0000566404Y0000902725D01*
X0000566404Y0000902725D02*
X0000538904Y0000800325D01*
X0000538904Y0000800325D02*
X0000523104Y0000871225D01*
X0000523104Y0000871225D02*
X0000515204Y0000871225D01*
X0000515204Y0000871225D02*
X0000491604Y0000800325D01*
X0000491604Y0000800325D02*
X0000468004Y0000906625D01*
X0000468004Y0000906625D02*
X0000460104Y0000906625D01*
X0000353804Y0000847525D02*
X0000412904Y0000847525D01*
X0000412904Y0000847525D02*
X0000412904Y0000839725D01*
X0000412904Y0000839725D02*
X0000357803Y0000839725D01*
X0000416804Y0000902725D02*
X0000416804Y0000776724D01*
X0000416804Y0000776724D02*
X0000424704Y0000776724D01*
X0000424704Y0000776724D02*
X0000424704Y0000902725D01*
X0000424704Y0000902725D02*
X0000416804Y0000902725D01*
X0000357803Y0000906625D02*
X0000353804Y0000906625D01*
X0000349904Y0000906625D02*
X0000349904Y0000776724D01*
X0000349904Y0000776724D02*
X0000357803Y0000776724D01*
X0000357803Y0000776724D02*
X0000357803Y0000906625D01*
X0000314504Y0000894824D02*
X0000310504Y0000898725D01*
X0000310504Y0000898725D02*
X0000294804Y0000902725D01*
X0000294804Y0000902725D02*
X0000275104Y0000906625D01*
X0000275104Y0000906625D02*
X0000247504Y0000898725D01*
X0000247504Y0000898725D02*
X0000235704Y0000886925D01*
X0000235704Y0000886925D02*
X0000231804Y0000867225D01*
X0000231804Y0000867225D02*
X0000235704Y0000851525D01*
X0000235704Y0000851525D02*
X0000251504Y0000839725D01*
X0000251504Y0000839725D02*
X0000271104Y0000831825D01*
X0000271104Y0000831825D02*
X0000286904Y0000827924D01*
X0000286904Y0000827924D02*
X0000294804Y0000820025D01*
X0000294804Y0000820025D02*
X0000298704Y0000808225D01*
X0000298704Y0000808225D02*
X0000294804Y0000796425D01*
X0000294804Y0000796425D02*
X0000283004Y0000788524D01*
X0000283004Y0000788524D02*
X0000267204Y0000788524D01*
X0000267204Y0000788524D02*
X0000247504Y0000788524D01*
X0000247504Y0000788524D02*
X0000235704Y0000792425D01*
X0000235704Y0000792425D02*
X0000227804Y0000788524D01*
X0000227804Y0000788524D02*
X0000239604Y0000780625D01*
X0000239604Y0000780625D02*
X0000263304Y0000776724D01*
X0000263304Y0000776724D02*
X0000286904Y0000776724D01*
X0000286904Y0000776724D02*
X0000302604Y0000788524D01*
X0000302604Y0000788524D02*
X0000306604Y0000808225D01*
X0000306604Y0000808225D02*
X0000306604Y0000820025D01*
X0000306604Y0000820025D02*
X0000298704Y0000831825D01*
X0000298704Y0000831825D02*
X0000279004Y0000839725D01*
X0000279004Y0000839725D02*
X0000259303Y0000847525D01*
X0000259303Y0000847525D02*
X0000243604Y0000859425D01*
X0000243604Y0000859425D02*
X0000239604Y0000871225D01*
X0000239604Y0000871225D02*
X0000247504Y0000883024D01*
X0000247504Y0000883024D02*
X0000263304Y0000894824D01*
X0000263304Y0000894824D02*
X0000286904Y0000894824D01*
X0000286904Y0000894824D02*
X0000302604Y0000890925D01*
X0000302604Y0000890925D02*
X0000314504Y0000886925D01*
X0000153004Y0000890925D02*
X0000141204Y0000890925D01*
X0000141204Y0000890925D02*
X0000125504Y0000879025D01*
X0000125504Y0000879025D02*
X0000121504Y0000859425D01*
X0000121504Y0000859425D02*
X0000121504Y0000827924D01*
X0000121504Y0000827924D02*
X0000125504Y0000808225D01*
X0000125504Y0000808225D02*
X0000133304Y0000796425D01*
X0000133304Y0000796425D02*
X0000149104Y0000788524D01*
X0000149104Y0000788524D02*
X0000164804Y0000788524D01*
X0000164804Y0000788524D02*
X0000180604Y0000800325D01*
X0000180604Y0000800325D02*
X0000188503Y0000827924D01*
X0000188503Y0000827924D02*
X0000188503Y0000859425D01*
X0000188503Y0000859425D02*
X0000180604Y0000875125D01*
X0000180604Y0000875125D02*
X0000172703Y0000883024D01*
X0000172703Y0000883024D02*
X0000157004Y0000890925D01*
X0000153004Y0000902725D02*
X0000137304Y0000898725D01*
X0000137304Y0000898725D02*
X0000125504Y0000894824D01*
X0000125504Y0000894824D02*
X0000113704Y0000875125D01*
X0000113704Y0000875125D02*
X0000109704Y0000851525D01*
X0000109704Y0000851525D02*
X0000113704Y0000808225D01*
X0000113704Y0000808225D02*
X0000125504Y0000784625D01*
X0000125504Y0000784625D02*
X0000149104Y0000776724D01*
X0000149104Y0000776724D02*
X0000176704Y0000780625D01*
X0000176704Y0000780625D02*
X0000192403Y0000804224D01*
X0000192403Y0000804224D02*
X0000196304Y0000831825D01*
X0000196304Y0000831825D02*
X0000196304Y0000859425D01*
X0000196304Y0000859425D02*
X0000188503Y0000883024D01*
X0000188503Y0000883024D02*
X0000172703Y0000898725D01*
X0000172703Y0000898725D02*
X0000153004Y0000902725D01*
X0000286904Y0001103425D02*
X0000267204Y0001119225D01*
X0000267204Y0001119225D02*
X0000251504Y0001138925D01*
X0000251504Y0001138925D02*
X0000243604Y0001158625D01*
X0000243604Y0001158625D02*
X0000243604Y0001186125D01*
X0000243604Y0001186125D02*
X0000247604Y0001209725D01*
X0000247604Y0001209725D02*
X0000263304Y0001233425D01*
X0000263304Y0001233425D02*
X0000294804Y0001257025D01*
X0000294804Y0001257025D02*
X0000326304Y0001260925D01*
X0000326304Y0001260925D02*
X0000353904Y0001260925D01*
X0000353904Y0001260925D02*
X0000381404Y0001241225D01*
X0000381404Y0001241225D02*
X0000401104Y0001213725D01*
X0000401104Y0001213725D02*
X0000409004Y0001190125D01*
X0000409004Y0001190125D02*
X0000409004Y0001162525D01*
X0000409004Y0001162525D02*
X0000397204Y0001131025D01*
X0000397204Y0001131025D02*
X0000377504Y0001111325D01*
X0000377504Y0001111325D02*
X0000365703Y0001103425D01*
X0000365703Y0001099525D02*
X0000395204Y0001010925D01*
X0000395204Y0001010925D02*
X0000428704Y0001028624D01*
X0000428704Y0001028624D02*
X0000479804Y0000989325D01*
X0000479804Y0000989325D02*
X0000519204Y0001032624D01*
X0000519204Y0001032624D02*
X0000483804Y0001083825D01*
X0000483804Y0001083825D02*
X0000503503Y0001134925D01*
X0000503503Y0001134925D02*
X0000503503Y0001142825D01*
X0000503503Y0001142825D02*
X0000566504Y0001154625D01*
X0000566504Y0001154625D02*
X0000566504Y0001213725D01*
X0000566504Y0001213725D02*
X0000503503Y0001221525D01*
X0000503503Y0001221525D02*
X0000479804Y0001276725D01*
X0000479804Y0001276725D02*
X0000515304Y0001331825D01*
X0000515304Y0001331825D02*
X0000472004Y0001371225D01*
X0000472004Y0001371225D02*
X0000420804Y0001335724D01*
X0000420804Y0001335724D02*
X0000373504Y0001355425D01*
X0000373504Y0001355425D02*
X0000357803Y0001418425D01*
X0000357803Y0001418425D02*
X0000298704Y0001418425D01*
X0000298704Y0001418425D02*
X0000286904Y0001355425D01*
X0000286904Y0001355425D02*
X0000235704Y0001335724D01*
X0000235704Y0001335724D02*
X0000180604Y0001375125D01*
X0000180604Y0001375125D02*
X0000137304Y0001331825D01*
X0000137304Y0001331825D02*
X0000176704Y0001280625D01*
X0000176704Y0001280625D02*
X0000149104Y0001221525D01*
X0000149104Y0001221525D02*
X0000086103Y0001213725D01*
X0000086103Y0001213725D02*
X0000082204Y0001158625D01*
X0000082204Y0001158625D02*
X0000145204Y0001146725D01*
X0000145204Y0001146725D02*
X0000168803Y0001083825D01*
X0000168803Y0001083825D02*
X0000133404Y0001032624D01*
X0000133404Y0001032624D02*
X0000172804Y0000989325D01*
X0000172804Y0000989325D02*
X0000223904Y0001024725D01*
X0000223904Y0001024725D02*
X0000251504Y0001012925D01*
X0000251504Y0001012925D02*
X0000286904Y0001103425D01*
X0000647228Y0000709149D02*
X0000647228Y0000648125D01*
X0000525181Y0000648125D02*
X0000525181Y0000709149D01*
X0000525181Y0000709149D02*
X0000647228Y0000709149D01*
X0000536204Y0000598125D02*
X0000636204Y0000598125D01*
X0000531643Y0001357388D02*
X0000529768Y0001355513D01*
X0000524144Y0001353638D01*
X0000520394Y0001353638D01*
X0000514769Y0001355513D01*
X0000511020Y0001359262D01*
X0000509144Y0001363011D01*
X0000507271Y0001370511D01*
X0000507271Y0001376135D01*
X0000509144Y0001383634D01*
X0000511020Y0001387383D01*
X0000514769Y0001391133D01*
X0000520394Y0001393008D01*
X0000524144Y0001393008D01*
X0000529768Y0001391133D01*
X0000531643Y0001389259D01*
X0000569138Y0001353638D02*
X0000546641Y0001353638D01*
X0000557889Y0001353638D02*
X0000557889Y0001393008D01*
X0000554140Y0001387383D01*
X0000550390Y0001383634D01*
X0000546641Y0001381760D01*
X0000557145Y0000831103D02*
X0000557145Y0000870472D01*
X0000572144Y0000870472D01*
X0000575893Y0000868598D01*
X0000577768Y0000866723D01*
X0000579643Y0000862974D01*
X0000579643Y0000857349D01*
X0000577768Y0000853600D01*
X0000575893Y0000851725D01*
X0000572144Y0000849850D01*
X0000557145Y0000849850D01*
X0000617138Y0000831103D02*
X0000594641Y0000831103D01*
X0000605889Y0000831103D02*
X0000605889Y0000870472D01*
X0000602140Y0000864848D01*
X0000598390Y0000861099D01*
X0000594641Y0000859224D01*
%LPC*%
D12*
X0000132204Y0000592125D03*
D13*
X0000132204Y0000692125D03*
X0000232204Y0000592125D03*
X0000232204Y0000692125D03*
X0000332203Y0000592125D03*
X0000332203Y0000692125D03*
X0000432204Y0000592125D03*
X0000432204Y0000692125D03*
D14*
X0000587417Y0001454125D03*
X0000488992Y0001454125D03*
D15*
X0000586204Y0000648125D03*
G04 #@! TF.FileFunction,Legend,Top*
G04 Gerber Fmt 4.6, Leading zero omitted, Abs format (unit mm)*
G04 Created by KiCad (PCBNEW 4.0.1-3.201512221401+6198~38~ubuntu15.10.1-stable) date søn 24 jan 2016 12:57:00 CET*
G01*
G04 APERTURE LIST*
G04 APERTURE END LIST*
D26*
D27*
X0000744094Y0000500456D02*
X0001925196Y0000500456D01*
X0000744094Y0001148456D02*
X0000744094Y0000500456D01*
X0001925196Y0001148456D02*
X0000744094Y0001148456D01*
X0001925196Y0000500456D02*
X0001925196Y0001148456D01*
X0001898818Y0000666456D02*
X0001898818Y0000966456D01*
X0001898818Y0000966456D02*
X0001698818Y0000966456D01*
X0001698818Y0000966456D02*
X0001698818Y0000566456D01*
X0001698818Y0000566456D02*
X0001798818Y0000566456D01*
X0001848818Y0000555433D02*
X0001909842Y0000555433D01*
X0001798818Y0000566456D02*
X0001798818Y0000666456D01*
X0001798818Y0000666456D02*
X0001898818Y0000666456D01*
X0001909842Y0000555433D02*
X0001909842Y0000616456D01*
X0001020283Y0001002771D02*
X0001020283Y0001042141D01*
X0000953354Y0001042141D02*
X0000953354Y0001002771D01*
X0001054018Y0000834155D02*
X0001286318Y0000601856D01*
X0001235118Y0000613656D02*
X0001215418Y0000633356D01*
X0001172118Y0000794755D02*
X0001183918Y0000782955D01*
X0001290217Y0000716055D02*
X0001282318Y0000723856D01*
X0001093418Y0000676655D02*
X0001085518Y0000684556D01*
X0001113018Y0000656956D02*
X0001128818Y0000641256D01*
X0001113018Y0000696356D02*
X0001101218Y0000708156D01*
X0001113018Y0000735756D02*
X0001093418Y0000755355D01*
X0001034318Y0000814456D02*
X0001026418Y0000822355D01*
X0001054018Y0000834155D02*
X0001042218Y0000845956D01*
X0001093418Y0000834155D02*
X0001073718Y0000853856D01*
X0001113018Y0000893156D02*
X0001109118Y0000897156D01*
X0001113018Y0000853856D02*
X0001097318Y0000869556D01*
X0001093418Y0000952256D02*
X0001081518Y0000964056D01*
X0001113018Y0000971956D02*
X0001101218Y0000983756D01*
X0001309918Y0000656956D02*
X0001321718Y0000645156D01*
X0001250818Y0000716055D02*
X0001239018Y0000727856D01*
X0001408318Y0000633356D02*
X0001416218Y0000625456D01*
X0001329618Y0000716055D02*
X0001309918Y0000735756D01*
X0001428018Y0000656956D02*
X0001435918Y0000649056D01*
X0001349318Y0000735756D02*
X0001329618Y0000755355D01*
X0001388618Y0000735756D02*
X0001372918Y0000751456D01*
X0001211518Y0000952256D02*
X0001191818Y0000971956D01*
X0001231118Y0000971956D02*
X0001219318Y0000983756D01*
X0001368918Y0000952256D02*
X0001353218Y0000967956D01*
X0001250818Y0001030956D02*
X0001235118Y0001046756D01*
X0001388618Y0000971956D02*
X0001428018Y0000932556D01*
X0001368918Y0000952256D02*
X0001408318Y0000912856D01*
X0001250818Y0001030956D02*
X0001408318Y0000873555D01*
X0001231118Y0001011355D02*
X0001368918Y0000873555D01*
X0001231118Y0000971956D02*
X0001349318Y0000853856D01*
X0001388618Y0000735756D02*
X0001408318Y0000716055D01*
X0001349318Y0000735756D02*
X0001428018Y0000656956D01*
X0001329618Y0000716055D02*
X0001408318Y0000637256D01*
X0001290217Y0000716055D02*
X0001349318Y0000656956D01*
X0001250818Y0000716055D02*
X0001309918Y0000656956D01*
X0001034318Y0000814456D02*
X0001073718Y0000775056D01*
X0001093418Y0000676655D02*
X0001113018Y0000656956D01*
X0001113018Y0000696356D02*
X0001152418Y0000656956D01*
X0001231118Y0000617556D02*
X0001270518Y0000578256D01*
X0001113018Y0000735756D02*
X0001211518Y0000637256D01*
X0001093418Y0000834155D02*
X0001290217Y0000637256D01*
X0001211518Y0000952256D02*
X0001270518Y0000893156D01*
X0001172118Y0000952256D02*
X0001231118Y0000893156D01*
X0001113018Y0000853856D02*
X0001172118Y0000794755D01*
X0001113018Y0000971956D02*
X0001211518Y0000873555D01*
X0001093418Y0000952256D02*
X0001191818Y0000853856D01*
X0001113018Y0000893156D02*
X0001172118Y0000834155D01*
X0001577618Y0001003455D02*
X0001601218Y0001003455D01*
X0001534318Y0000944356D02*
X0001664218Y0000975856D01*
X0001664218Y0000975856D02*
X0001664218Y0000983756D01*
X0001664218Y0000983756D02*
X0001609118Y0000999456D01*
X0001609118Y0000999456D02*
X0001609118Y0001003455D01*
X0001609118Y0001003455D02*
X0001664218Y0001023156D01*
X0001664218Y0001023156D02*
X0001664218Y0001027056D01*
X0001664218Y0001027056D02*
X0001538218Y0001058556D01*
X0001538218Y0001058556D02*
X0001538218Y0001050656D01*
X0001538218Y0001050656D02*
X0001640618Y0001023156D01*
X0001640618Y0001023156D02*
X0001569718Y0001007355D01*
X0001569718Y0001007355D02*
X0001569718Y0000999456D01*
X0001569718Y0000999456D02*
X0001640618Y0000975856D01*
X0001640618Y0000975856D02*
X0001534318Y0000952256D01*
X0001534318Y0000952256D02*
X0001534318Y0000944356D01*
X0001593417Y0000838056D02*
X0001593417Y0000897156D01*
X0001593417Y0000897156D02*
X0001601218Y0000897156D01*
X0001601218Y0000897156D02*
X0001601218Y0000842056D01*
X0001538218Y0000901055D02*
X0001664218Y0000901055D01*
X0001664218Y0000901055D02*
X0001664218Y0000908956D01*
X0001664218Y0000908956D02*
X0001538218Y0000908956D01*
X0001538218Y0000908956D02*
X0001538218Y0000901055D01*
X0001534318Y0000842056D02*
X0001534318Y0000838056D01*
X0001534318Y0000834155D02*
X0001664218Y0000834155D01*
X0001664218Y0000834155D02*
X0001664218Y0000842056D01*
X0001664218Y0000842056D02*
X0001534318Y0000842056D01*
X0001546118Y0000798756D02*
X0001542218Y0000794755D01*
X0001542218Y0000794755D02*
X0001538218Y0000779056D01*
X0001538218Y0000779056D02*
X0001534318Y0000759356D01*
X0001534318Y0000759356D02*
X0001542218Y0000731756D01*
X0001542218Y0000731756D02*
X0001554018Y0000719956D01*
X0001554018Y0000719956D02*
X0001573718Y0000716055D01*
X0001573718Y0000716055D02*
X0001589418Y0000719956D01*
X0001589418Y0000719956D02*
X0001601218Y0000735756D01*
X0001601218Y0000735756D02*
X0001609118Y0000755355D01*
X0001609118Y0000755355D02*
X0001613018Y0000771156D01*
X0001613018Y0000771156D02*
X0001620918Y0000779056D01*
X0001620918Y0000779056D02*
X0001632718Y0000782955D01*
X0001632718Y0000782955D02*
X0001644518Y0000779056D01*
X0001644518Y0000779056D02*
X0001652418Y0000767255D01*
X0001652418Y0000767255D02*
X0001652418Y0000751456D01*
X0001652418Y0000751456D02*
X0001652418Y0000731756D01*
X0001652418Y0000731756D02*
X0001648518Y0000719956D01*
X0001648518Y0000719956D02*
X0001652418Y0000712056D01*
X0001652418Y0000712056D02*
X0001660318Y0000723856D01*
X0001660318Y0000723856D02*
X0001664218Y0000747556D01*
X0001664218Y0000747556D02*
X0001664218Y0000771156D01*
X0001664218Y0000771156D02*
X0001652418Y0000786856D01*
X0001652418Y0000786856D02*
X0001632718Y0000790856D01*
X0001632718Y0000790856D02*
X0001620918Y0000790856D01*
X0001620918Y0000790856D02*
X0001609118Y0000782955D01*
X0001609118Y0000782955D02*
X0001601218Y0000763256D01*
X0001601218Y0000763256D02*
X0001593417Y0000743556D01*
X0001593417Y0000743556D02*
X0001581518Y0000727856D01*
X0001581518Y0000727856D02*
X0001569718Y0000723856D01*
X0001569718Y0000723856D02*
X0001557918Y0000731756D01*
X0001557918Y0000731756D02*
X0001546118Y0000747556D01*
X0001546118Y0000747556D02*
X0001546118Y0000771156D01*
X0001546118Y0000771156D02*
X0001550018Y0000786856D01*
X0001550018Y0000786856D02*
X0001554018Y0000798756D01*
X0001550018Y0000637256D02*
X0001550018Y0000625456D01*
X0001550018Y0000625456D02*
X0001561918Y0000609756D01*
X0001561918Y0000609756D02*
X0001581518Y0000605756D01*
X0001581518Y0000605756D02*
X0001613018Y0000605756D01*
X0001613018Y0000605756D02*
X0001632718Y0000609756D01*
X0001632718Y0000609756D02*
X0001644518Y0000617556D01*
X0001644518Y0000617556D02*
X0001652418Y0000633356D01*
X0001652418Y0000633356D02*
X0001652418Y0000649056D01*
X0001652418Y0000649056D02*
X0001640618Y0000664856D01*
X0001640618Y0000664856D02*
X0001613018Y0000672756D01*
X0001613018Y0000672756D02*
X0001581518Y0000672756D01*
X0001581518Y0000672756D02*
X0001565818Y0000664856D01*
X0001565818Y0000664856D02*
X0001557918Y0000656956D01*
X0001557918Y0000656956D02*
X0001550018Y0000641256D01*
X0001538218Y0000637256D02*
X0001542218Y0000621556D01*
X0001542218Y0000621556D02*
X0001546118Y0000609756D01*
X0001546118Y0000609756D02*
X0001565818Y0000597956D01*
X0001565818Y0000597956D02*
X0001589418Y0000593956D01*
X0001589418Y0000593956D02*
X0001632718Y0000597956D01*
X0001632718Y0000597956D02*
X0001656318Y0000609756D01*
X0001656318Y0000609756D02*
X0001664218Y0000633356D01*
X0001664218Y0000633356D02*
X0001660318Y0000660956D01*
X0001660318Y0000660956D02*
X0001636718Y0000676655D01*
X0001636718Y0000676655D02*
X0001609118Y0000680556D01*
X0001609118Y0000680556D02*
X0001581518Y0000680556D01*
X0001581518Y0000680556D02*
X0001557918Y0000672756D01*
X0001557918Y0000672756D02*
X0001542218Y0000656956D01*
X0001542218Y0000656956D02*
X0001538218Y0000637256D01*
X0001337518Y0000771156D02*
X0001321718Y0000751456D01*
X0001321718Y0000751456D02*
X0001302018Y0000735756D01*
X0001302018Y0000735756D02*
X0001282318Y0000727856D01*
X0001282318Y0000727856D02*
X0001254818Y0000727856D01*
X0001254818Y0000727856D02*
X0001231218Y0000731856D01*
X0001231218Y0000731856D02*
X0001207518Y0000747556D01*
X0001207518Y0000747556D02*
X0001183918Y0000779056D01*
X0001183918Y0000779056D02*
X0001180018Y0000810556D01*
X0001180018Y0000810556D02*
X0001180018Y0000838156D01*
X0001180018Y0000838156D02*
X0001199718Y0000865656D01*
X0001199718Y0000865656D02*
X0001227218Y0000885356D01*
X0001227218Y0000885356D02*
X0001250818Y0000893256D01*
X0001250818Y0000893256D02*
X0001278417Y0000893256D01*
X0001278417Y0000893256D02*
X0001309918Y0000881456D01*
X0001309918Y0000881456D02*
X0001329618Y0000861755D01*
X0001329618Y0000861755D02*
X0001337518Y0000849956D01*
X0001341418Y0000849956D02*
X0001430016Y0000879456D01*
X0001430016Y0000879456D02*
X0001412318Y0000912956D01*
X0001412318Y0000912956D02*
X0001451618Y0000964056D01*
X0001451618Y0000964056D02*
X0001408318Y0001003455D01*
X0001408318Y0001003455D02*
X0001357118Y0000968056D01*
X0001357118Y0000968056D02*
X0001306018Y0000987756D01*
X0001306018Y0000987756D02*
X0001298118Y0000987756D01*
X0001298118Y0000987756D02*
X0001286318Y0001050756D01*
X0001286318Y0001050756D02*
X0001227218Y0001050756D01*
X0001227218Y0001050756D02*
X0001219418Y0000987756D01*
X0001219418Y0000987756D02*
X0001164218Y0000964056D01*
X0001164218Y0000964056D02*
X0001109118Y0000999556D01*
X0001109118Y0000999556D02*
X0001069718Y0000956256D01*
X0001069718Y0000956256D02*
X0001105218Y0000905056D01*
X0001105218Y0000905056D02*
X0001085518Y0000857756D01*
X0001085518Y0000857756D02*
X0001022518Y0000842056D01*
X0001022518Y0000842056D02*
X0001022518Y0000782955D01*
X0001022518Y0000782955D02*
X0001085518Y0000771156D01*
X0001085518Y0000771156D02*
X0001105218Y0000719956D01*
X0001105218Y0000719956D02*
X0001065818Y0000664856D01*
X0001065818Y0000664856D02*
X0001109118Y0000621556D01*
X0001109118Y0000621556D02*
X0001160318Y0000660956D01*
X0001160318Y0000660956D02*
X0001219418Y0000633356D01*
X0001219418Y0000633356D02*
X0001227218Y0000570356D01*
X0001227218Y0000570356D02*
X0001282318Y0000566456D01*
X0001282318Y0000566456D02*
X0001294218Y0000629456D01*
X0001294218Y0000629456D02*
X0001357118Y0000653056D01*
X0001357118Y0000653056D02*
X0001408318Y0000617656D01*
X0001408318Y0000617656D02*
X0001451618Y0000657056D01*
X0001451618Y0000657056D02*
X0001416218Y0000708156D01*
X0001416218Y0000708156D02*
X0001428018Y0000735756D01*
X0001428018Y0000735756D02*
X0001337518Y0000771156D01*
X0001731795Y0001131480D02*
X0001792818Y0001131480D01*
X0001792818Y0001009433D02*
X0001731795Y0001009433D01*
X0001731795Y0001009433D02*
X0001731795Y0001131480D01*
X0001842818Y0001020456D02*
X0001842818Y0001120456D01*
X0001083556Y0001015895D02*
X0001085431Y0001014019D01*
X0001087306Y0001008394D01*
X0001087306Y0001004645D01*
X0001085431Y0000999022D01*
X0001081682Y0000995272D01*
X0001077932Y0000993397D01*
X0001070433Y0000991523D01*
X0001064809Y0000991523D01*
X0001057310Y0000993397D01*
X0001053560Y0000995272D01*
X0001049811Y0000999022D01*
X0001047936Y0001004645D01*
X0001047936Y0001008394D01*
X0001049811Y0001014019D01*
X0001051685Y0001015895D01*
X0001087306Y0001053390D02*
X0001087306Y0001030893D01*
X0001087306Y0001042141D02*
X0001047936Y0001042141D01*
X0001053560Y0001038392D01*
X0001057310Y0001034642D01*
X0001059184Y0001030893D01*
X0001609841Y0001041396D02*
X0001570471Y0001041396D01*
X0001570471Y0001056395D01*
X0001572346Y0001060145D01*
X0001574221Y0001062020D01*
X0001577970Y0001063895D01*
X0001583595Y0001063895D01*
X0001587344Y0001062020D01*
X0001589219Y0001060145D01*
X0001591094Y0001056395D01*
X0001591094Y0001041396D01*
X0001609841Y0001101390D02*
X0001609841Y0001078893D01*
X0001609841Y0001090141D02*
X0001570471Y0001090141D01*
X0001576095Y0001086392D01*
X0001579845Y0001082642D01*
X0001581720Y0001078893D01*
D28*
X0001848818Y0000616456D03*
D29*
X0001748818Y0000616456D03*
X0001848818Y0000716456D03*
X0001748818Y0000716456D03*
X0001848818Y0000816455D03*
X0001748818Y0000816455D03*
X0001848818Y0000916456D03*
X0001748818Y0000916456D03*
D30*
X0000986818Y0001071669D03*
X0000986818Y0000973244D03*
D31*
X0001792818Y0001070456D03*
G04 #@! TF.FileFunction,Legend,Top*
G04 Gerber Fmt 4.6, Leading zero omitted, Abs format (unit mm)*
G04 Created by KiCad (PCBNEW 4.0.1-3.201512221401+6198~38~ubuntu15.10.1-stable) date søn 24 jan 2016 12:57:00 CET*
G01*
G04 APERTURE LIST*
G04 APERTURE END LIST*
D42*
D43*
X0000744094Y0001248488D02*
X0001925196Y0001248488D01*
X0000744094Y0001896488D02*
X0000744094Y0001248488D01*
X0001925196Y0001896488D02*
X0000744094Y0001896488D01*
X0001925196Y0001248488D02*
X0001925196Y0001896488D01*
X0001898818Y0001414488D02*
X0001898818Y0001714488D01*
X0001898818Y0001714488D02*
X0001698818Y0001714488D01*
X0001698818Y0001714488D02*
X0001698818Y0001314488D01*
X0001698818Y0001314488D02*
X0001798818Y0001314488D01*
X0001848818Y0001303464D02*
X0001909842Y0001303464D01*
X0001798818Y0001314488D02*
X0001798818Y0001414488D01*
X0001798818Y0001414488D02*
X0001898818Y0001414488D01*
X0001909842Y0001303464D02*
X0001909842Y0001364488D01*
X0001020283Y0001750803D02*
X0001020283Y0001790173D01*
X0000953354Y0001790173D02*
X0000953354Y0001750803D01*
X0001054018Y0001582188D02*
X0001286318Y0001349888D01*
X0001235118Y0001361688D02*
X0001215418Y0001381388D01*
X0001172118Y0001542788D02*
X0001183918Y0001530988D01*
X0001290217Y0001464088D02*
X0001282318Y0001471888D01*
X0001093418Y0001424688D02*
X0001085518Y0001432588D01*
X0001113018Y0001404988D02*
X0001128818Y0001389288D01*
X0001113018Y0001444387D02*
X0001101218Y0001456187D01*
X0001113018Y0001483788D02*
X0001093418Y0001503388D01*
X0001034318Y0001562488D02*
X0001026418Y0001570388D01*
X0001054018Y0001582188D02*
X0001042218Y0001593988D01*
X0001093418Y0001582188D02*
X0001073718Y0001601888D01*
X0001113018Y0001641188D02*
X0001109118Y0001645188D01*
X0001113018Y0001601888D02*
X0001097318Y0001617588D01*
X0001093418Y0001700288D02*
X0001081518Y0001712088D01*
X0001113018Y0001719988D02*
X0001101218Y0001731788D01*
X0001309918Y0001404988D02*
X0001321718Y0001393188D01*
X0001250818Y0001464088D02*
X0001239018Y0001475888D01*
X0001408318Y0001381388D02*
X0001416218Y0001373488D01*
X0001329618Y0001464088D02*
X0001309918Y0001483788D01*
X0001428018Y0001404988D02*
X0001435918Y0001397088D01*
X0001349318Y0001483788D02*
X0001329618Y0001503388D01*
X0001388618Y0001483788D02*
X0001372918Y0001499488D01*
X0001211518Y0001700288D02*
X0001191818Y0001719988D01*
X0001231118Y0001719988D02*
X0001219318Y0001731788D01*
X0001368918Y0001700288D02*
X0001353218Y0001715988D01*
X0001250818Y0001778988D02*
X0001235118Y0001794788D01*
X0001388618Y0001719988D02*
X0001428018Y0001680587D01*
X0001368918Y0001700288D02*
X0001408318Y0001660888D01*
X0001250818Y0001778988D02*
X0001408318Y0001621588D01*
X0001231118Y0001759387D02*
X0001368918Y0001621588D01*
X0001231118Y0001719988D02*
X0001349318Y0001601888D01*
X0001388618Y0001483788D02*
X0001408318Y0001464088D01*
X0001349318Y0001483788D02*
X0001428018Y0001404988D01*
X0001329618Y0001464088D02*
X0001408318Y0001385288D01*
X0001290217Y0001464088D02*
X0001349318Y0001404988D01*
X0001250818Y0001464088D02*
X0001309918Y0001404988D01*
X0001034318Y0001562488D02*
X0001073718Y0001523088D01*
X0001093418Y0001424688D02*
X0001113018Y0001404988D01*
X0001113018Y0001444387D02*
X0001152418Y0001404988D01*
X0001231118Y0001365588D02*
X0001270518Y0001326287D01*
X0001113018Y0001483788D02*
X0001211518Y0001385288D01*
X0001093418Y0001582188D02*
X0001290217Y0001385288D01*
X0001211518Y0001700288D02*
X0001270518Y0001641188D01*
X0001172118Y0001700288D02*
X0001231118Y0001641188D01*
X0001113018Y0001601888D02*
X0001172118Y0001542788D01*
X0001113018Y0001719988D02*
X0001211518Y0001621588D01*
X0001093418Y0001700288D02*
X0001191818Y0001601888D01*
X0001113018Y0001641188D02*
X0001172118Y0001582188D01*
X0001577618Y0001751488D02*
X0001601218Y0001751488D01*
X0001534318Y0001692387D02*
X0001664218Y0001723888D01*
X0001664218Y0001723888D02*
X0001664218Y0001731788D01*
X0001664218Y0001731788D02*
X0001609118Y0001747488D01*
X0001609118Y0001747488D02*
X0001609118Y0001751488D01*
X0001609118Y0001751488D02*
X0001664218Y0001771188D01*
X0001664218Y0001771188D02*
X0001664218Y0001775088D01*
X0001664218Y0001775088D02*
X0001538218Y0001806588D01*
X0001538218Y0001806588D02*
X0001538218Y0001798688D01*
X0001538218Y0001798688D02*
X0001640618Y0001771188D01*
X0001640618Y0001771188D02*
X0001569718Y0001755388D01*
X0001569718Y0001755388D02*
X0001569718Y0001747488D01*
X0001569718Y0001747488D02*
X0001640618Y0001723888D01*
X0001640618Y0001723888D02*
X0001534318Y0001700288D01*
X0001534318Y0001700288D02*
X0001534318Y0001692387D01*
X0001593417Y0001586088D02*
X0001593417Y0001645188D01*
X0001593417Y0001645188D02*
X0001601218Y0001645188D01*
X0001601218Y0001645188D02*
X0001601218Y0001590088D01*
X0001538218Y0001649088D02*
X0001664218Y0001649088D01*
X0001664218Y0001649088D02*
X0001664218Y0001656987D01*
X0001664218Y0001656987D02*
X0001538218Y0001656987D01*
X0001538218Y0001656987D02*
X0001538218Y0001649088D01*
X0001534318Y0001590088D02*
X0001534318Y0001586088D01*
X0001534318Y0001582188D02*
X0001664218Y0001582188D01*
X0001664218Y0001582188D02*
X0001664218Y0001590088D01*
X0001664218Y0001590088D02*
X0001534318Y0001590088D01*
X0001546118Y0001546787D02*
X0001542218Y0001542788D01*
X0001542218Y0001542788D02*
X0001538218Y0001527088D01*
X0001538218Y0001527088D02*
X0001534318Y0001507388D01*
X0001534318Y0001507388D02*
X0001542218Y0001479787D01*
X0001542218Y0001479787D02*
X0001554018Y0001467987D01*
X0001554018Y0001467987D02*
X0001573718Y0001464088D01*
X0001573718Y0001464088D02*
X0001589418Y0001467987D01*
X0001589418Y0001467987D02*
X0001601218Y0001483788D01*
X0001601218Y0001483788D02*
X0001609118Y0001503388D01*
X0001609118Y0001503388D02*
X0001613018Y0001519188D01*
X0001613018Y0001519188D02*
X0001620918Y0001527088D01*
X0001620918Y0001527088D02*
X0001632718Y0001530988D01*
X0001632718Y0001530988D02*
X0001644518Y0001527088D01*
X0001644518Y0001527088D02*
X0001652418Y0001515288D01*
X0001652418Y0001515288D02*
X0001652418Y0001499488D01*
X0001652418Y0001499488D02*
X0001652418Y0001479787D01*
X0001652418Y0001479787D02*
X0001648518Y0001467987D01*
X0001648518Y0001467987D02*
X0001652418Y0001460088D01*
X0001652418Y0001460088D02*
X0001660318Y0001471888D01*
X0001660318Y0001471888D02*
X0001664218Y0001495588D01*
X0001664218Y0001495588D02*
X0001664218Y0001519188D01*
X0001664218Y0001519188D02*
X0001652418Y0001534888D01*
X0001652418Y0001534888D02*
X0001632718Y0001538888D01*
X0001632718Y0001538888D02*
X0001620918Y0001538888D01*
X0001620918Y0001538888D02*
X0001609118Y0001530988D01*
X0001609118Y0001530988D02*
X0001601218Y0001511288D01*
X0001601218Y0001511288D02*
X0001593417Y0001491588D01*
X0001593417Y0001491588D02*
X0001581518Y0001475888D01*
X0001581518Y0001475888D02*
X0001569718Y0001471888D01*
X0001569718Y0001471888D02*
X0001557918Y0001479787D01*
X0001557918Y0001479787D02*
X0001546118Y0001495588D01*
X0001546118Y0001495588D02*
X0001546118Y0001519188D01*
X0001546118Y0001519188D02*
X0001550018Y0001534888D01*
X0001550018Y0001534888D02*
X0001554018Y0001546787D01*
X0001550018Y0001385288D02*
X0001550018Y0001373488D01*
X0001550018Y0001373488D02*
X0001561918Y0001357788D01*
X0001561918Y0001357788D02*
X0001581518Y0001353788D01*
X0001581518Y0001353788D02*
X0001613018Y0001353788D01*
X0001613018Y0001353788D02*
X0001632718Y0001357788D01*
X0001632718Y0001357788D02*
X0001644518Y0001365588D01*
X0001644518Y0001365588D02*
X0001652418Y0001381388D01*
X0001652418Y0001381388D02*
X0001652418Y0001397088D01*
X0001652418Y0001397088D02*
X0001640618Y0001412888D01*
X0001640618Y0001412888D02*
X0001613018Y0001420788D01*
X0001613018Y0001420788D02*
X0001581518Y0001420788D01*
X0001581518Y0001420788D02*
X0001565818Y0001412888D01*
X0001565818Y0001412888D02*
X0001557918Y0001404988D01*
X0001557918Y0001404988D02*
X0001550018Y0001389288D01*
X0001538218Y0001385288D02*
X0001542218Y0001369588D01*
X0001542218Y0001369588D02*
X0001546118Y0001357788D01*
X0001546118Y0001357788D02*
X0001565818Y0001345988D01*
X0001565818Y0001345988D02*
X0001589418Y0001341988D01*
X0001589418Y0001341988D02*
X0001632718Y0001345988D01*
X0001632718Y0001345988D02*
X0001656318Y0001357788D01*
X0001656318Y0001357788D02*
X0001664218Y0001381388D01*
X0001664218Y0001381388D02*
X0001660318Y0001408988D01*
X0001660318Y0001408988D02*
X0001636718Y0001424688D01*
X0001636718Y0001424688D02*
X0001609118Y0001428588D01*
X0001609118Y0001428588D02*
X0001581518Y0001428588D01*
X0001581518Y0001428588D02*
X0001557918Y0001420788D01*
X0001557918Y0001420788D02*
X0001542218Y0001404988D01*
X0001542218Y0001404988D02*
X0001538218Y0001385288D01*
X0001337518Y0001519188D02*
X0001321718Y0001499488D01*
X0001321718Y0001499488D02*
X0001302018Y0001483788D01*
X0001302018Y0001483788D02*
X0001282318Y0001475888D01*
X0001282318Y0001475888D02*
X0001254818Y0001475888D01*
X0001254818Y0001475888D02*
X0001231218Y0001479888D01*
X0001231218Y0001479888D02*
X0001207518Y0001495588D01*
X0001207518Y0001495588D02*
X0001183918Y0001527088D01*
X0001183918Y0001527088D02*
X0001180018Y0001558587D01*
X0001180018Y0001558587D02*
X0001180018Y0001586188D01*
X0001180018Y0001586188D02*
X0001199718Y0001613688D01*
X0001199718Y0001613688D02*
X0001227218Y0001633388D01*
X0001227218Y0001633388D02*
X0001250818Y0001641288D01*
X0001250818Y0001641288D02*
X0001278417Y0001641288D01*
X0001278417Y0001641288D02*
X0001309918Y0001629488D01*
X0001309918Y0001629488D02*
X0001329618Y0001609788D01*
X0001329618Y0001609788D02*
X0001337518Y0001597988D01*
X0001341418Y0001597988D02*
X0001430017Y0001627488D01*
X0001430017Y0001627488D02*
X0001412318Y0001660988D01*
X0001412318Y0001660988D02*
X0001451618Y0001712088D01*
X0001451618Y0001712088D02*
X0001408318Y0001751488D01*
X0001408318Y0001751488D02*
X0001357118Y0001716088D01*
X0001357118Y0001716088D02*
X0001306018Y0001735788D01*
X0001306018Y0001735788D02*
X0001298118Y0001735788D01*
X0001298118Y0001735788D02*
X0001286318Y0001798788D01*
X0001286318Y0001798788D02*
X0001227218Y0001798788D01*
X0001227218Y0001798788D02*
X0001219418Y0001735788D01*
X0001219418Y0001735788D02*
X0001164218Y0001712088D01*
X0001164218Y0001712088D02*
X0001109118Y0001747587D01*
X0001109118Y0001747587D02*
X0001069718Y0001704288D01*
X0001069718Y0001704288D02*
X0001105218Y0001653088D01*
X0001105218Y0001653088D02*
X0001085518Y0001605788D01*
X0001085518Y0001605788D02*
X0001022518Y0001590088D01*
X0001022518Y0001590088D02*
X0001022518Y0001530988D01*
X0001022518Y0001530988D02*
X0001085518Y0001519188D01*
X0001085518Y0001519188D02*
X0001105218Y0001467987D01*
X0001105218Y0001467987D02*
X0001065818Y0001412888D01*
X0001065818Y0001412888D02*
X0001109118Y0001369588D01*
X0001109118Y0001369588D02*
X0001160318Y0001408988D01*
X0001160318Y0001408988D02*
X0001219418Y0001381388D01*
X0001219418Y0001381388D02*
X0001227218Y0001318388D01*
X0001227218Y0001318388D02*
X0001282318Y0001314488D01*
X0001282318Y0001314488D02*
X0001294218Y0001377488D01*
X0001294218Y0001377488D02*
X0001357118Y0001401088D01*
X0001357118Y0001401088D02*
X0001408318Y0001365688D01*
X0001408318Y0001365688D02*
X0001451618Y0001405088D01*
X0001451618Y0001405088D02*
X0001416218Y0001456187D01*
X0001416218Y0001456187D02*
X0001428018Y0001483788D01*
X0001428018Y0001483788D02*
X0001337518Y0001519188D01*
X0001731795Y0001879511D02*
X0001792818Y0001879511D01*
X0001792818Y0001757464D02*
X0001731795Y0001757464D01*
X0001731795Y0001757464D02*
X0001731795Y0001879511D01*
X0001842818Y0001768488D02*
X0001842818Y0001868488D01*
X0001083556Y0001763926D02*
X0001085431Y0001762051D01*
X0001087306Y0001756427D01*
X0001087306Y0001752677D01*
X0001085431Y0001747053D01*
X0001081682Y0001743304D01*
X0001077932Y0001741429D01*
X0001070433Y0001739554D01*
X0001064809Y0001739554D01*
X0001057310Y0001741429D01*
X0001053560Y0001743304D01*
X0001049811Y0001747053D01*
X0001047936Y0001752677D01*
X0001047936Y0001756427D01*
X0001049811Y0001762051D01*
X0001051685Y0001763926D01*
X0001087306Y0001801421D02*
X0001087306Y0001778924D01*
X0001087306Y0001790173D02*
X0001047936Y0001790173D01*
X0001053560Y0001786423D01*
X0001057310Y0001782674D01*
X0001059184Y0001778924D01*
X0001609841Y0001789429D02*
X0001570471Y0001789429D01*
X0001570471Y0001804427D01*
X0001572346Y0001808177D01*
X0001574221Y0001810051D01*
X0001577970Y0001811926D01*
X0001583595Y0001811926D01*
X0001587344Y0001810051D01*
X0001589219Y0001808177D01*
X0001591094Y0001804427D01*
X0001591094Y0001789429D01*
X0001609841Y0001849421D02*
X0001609841Y0001826924D01*
X0001609841Y0001838173D02*
X0001570471Y0001838173D01*
X0001576095Y0001834423D01*
X0001579845Y0001830674D01*
X0001581720Y0001826924D01*
D44*
X0001848818Y0001364488D03*
D45*
X0001748818Y0001364488D03*
X0001848818Y0001464488D03*
X0001748818Y0001464488D03*
X0001848818Y0001564488D03*
X0001748818Y0001564488D03*
X0001848818Y0001664488D03*
X0001748818Y0001664488D03*
D46*
X0000986818Y0001819700D03*
X0000986818Y0001721275D03*
D47*
X0001792818Y0001818488D03*
G04 #@! TF.FileFunction,Legend,Top*
G04 Gerber Fmt 4.6, Leading zero omitted, Abs format (unit mm)*
G04 Created by KiCad (PCBNEW 4.0.1-3.201512221401+6198~38~ubuntu15.10.1-stable) date lør 23 jan 2016 16:05:11 CET*
G01*
G04 APERTURE LIST*
G04 APERTURE END LIST*
D58*
D59*
X0000039370Y0000000000D02*
X0000039370Y0000393700D01*
X0001929133Y0000000000D02*
X0000039370Y0000000000D01*
X0001929133Y0000393700D02*
X0001929133Y0000000000D01*
X0000039370Y0000393700D02*
X0001929133Y0000393700D01*
M02*
