%MOIN*%
%OFA0B0*%
%FSLAX46Y46*%
%IPPOS*%
%LPD*%
%AMREC10*
4,1,3,
0.034,-0.034,
0.034,0.034,
-0.034,0.034,
-0.034,-0.034,
0*
%
%AMOBR20*
4,1,79,
-0.034,0.0000000000000000020818308014980413,
-0.033895189346926355,0.0026676092547467303,
-0.033581403580234689,0.0053187718113678522,
-0.033060577293521007,0.0079371423711007867,
-0.032335921554035224,0.010506577808748214,
-0.031411904105383755,0.013011236700413056,
-0.030294221822404512,0.015435676991144594,
-0.028989765588039139,0.017764951200342265,
-0.027506577808748215,0.019984698577944087,
-0.025853802830401056,0.022081233643226245,
-0.024041630560342621,0.024041630560342617,
-0.022081233643226245,0.025853802830401056,
-0.019984698577944087,0.027506577808748215,
-0.017764951200342265,0.028989765588039139,
-0.015435676991144592,0.030294221822404512,
-0.013011236700413053,0.031411904105383755,
-0.010506577808748212,0.032335921554035224,
-0.0079371423711007832,0.033060577293521007,
-0.0053187718113678496,0.033581403580234689,
-0.0026676092547467281,0.033895189346926355,
0,0.034,
0.0026676092547467281,0.033895189346926355,
0.0053187718113678496,0.033581403580234689,
0.007937142371100785,0.033060577293521007,
0.010506577808748212,0.032335921554035224,
0.013011236700413053,0.031411904105383755,
0.015435676991144592,0.030294221822404512,
0.017764951200342265,0.028989765588039139,
0.019984698577944087,0.027506577808748219,
0.022081233643226245,0.025853802830401056,
0.024041630560342617,0.024041630560342621,
0.025853802830401052,0.022081233643226249,
0.027506577808748215,0.019984698577944091,
0.028989765588039139,0.017764951200342265,
0.030294221822404509,0.015435676991144594,
0.031411904105383755,0.013011236700413053,
0.032335921554035224,0.010506577808748214,
0.033060577293521007,0.0079371423711007867,
0.033581403580234689,0.0053187718113678522,
0.033895189346926355,0.0026676092547467303,
0.034,0.0000000000000000020818308014980413,
0.033895189346926355,-0.0026676092547467264,
0.033581403580234689,-0.0053187718113678478,
0.033060577293521007,-0.0079371423711007832,
0.032335921554035224,-0.01050657780874821,
0.031411904105383755,-0.013011236700413051,
0.030294221822404512,-0.015435676991144589,
0.028989765588039142,-0.017764951200342261,
0.027506577808748219,-0.019984698577944084,
0.025853802830401056,-0.022081233643226245,
0.024041630560342621,-0.024041630560342617,
0.022081233643226238,-0.025853802830401063,
0.019984698577944091,-0.027506577808748215,
0.017764951200342251,-0.028989765588039142,
0.015435676991144596,-0.030294221822404509,
0.013011236700413072,-0.031411904105383741,
0.010506577808748217,-0.032335921554035224,
0.0079371423711007746,-0.033060577293521007,
0.0053187718113678548,-0.033581403580234682,
0.0026676092547467472,-0.033895189346926355,
0.0000000000000000041636616029960833,-0.034,
-0.0026676092547467389,-0.033895189346926355,
-0.0053187718113678452,-0.033581403580234689,
-0.0079371423711007659,-0.033060577293521014,
-0.01050657780874821,-0.032335921554035224,
-0.013011236700413063,-0.031411904105383748,
-0.015435676991144589,-0.030294221822404512,
-0.017764951200342244,-0.028989765588039153,
-0.019984698577944084,-0.027506577808748219,
-0.022081233643226252,-0.025853802830401049,
-0.02404163056034261,-0.024041630560342624,
-0.025853802830401063,-0.022081233643226238,
-0.027506577808748208,-0.019984698577944097,
-0.028989765588039142,-0.017764951200342254,
-0.030294221822404509,-0.015435676991144596,
-0.031411904105383741,-0.013011236700413074,
-0.032335921554035224,-0.010506577808748219,
-0.033060577293521007,-0.0079371423711007763,
-0.033581403580234682,-0.0053187718113678556,
-0.033895189346926355,-0.0026676092547467493,
0*
%
%AMREC30*
4,1,3,
0.059055118110236227,-0.023622047244094491,
0.059055118110236227,0.023622047244094484,
-0.059055118110236227,0.023622047244094491,
-0.059055118110236227,-0.023622047244094484,
0*
%
%AMREC40*
4,1,3,
0.044,-0.044,
0.044,0.044,
-0.044,0.044,
-0.044,-0.044,
0*
%
%AMREC250*
4,1,3,
0.034,-0.034,
0.034,0.034,
-0.034,0.034,
-0.034,-0.034,
0*
%
%AMOBR260*
4,1,79,
-0.034,0.0000000000000000020818308014980413,
-0.033895189346926355,0.0026676092547467303,
-0.033581403580234689,0.0053187718113678522,
-0.033060577293521007,0.0079371423711007867,
-0.032335921554035224,0.010506577808748214,
-0.031411904105383755,0.013011236700413056,
-0.030294221822404512,0.015435676991144594,
-0.028989765588039139,0.017764951200342265,
-0.027506577808748215,0.019984698577944087,
-0.025853802830401056,0.022081233643226245,
-0.024041630560342621,0.024041630560342617,
-0.022081233643226245,0.025853802830401056,
-0.019984698577944087,0.027506577808748215,
-0.017764951200342265,0.028989765588039139,
-0.015435676991144592,0.030294221822404512,
-0.013011236700413053,0.031411904105383755,
-0.010506577808748212,0.032335921554035224,
-0.0079371423711007832,0.033060577293521007,
-0.0053187718113678496,0.033581403580234689,
-0.0026676092547467281,0.033895189346926355,
0,0.034,
0.0026676092547467281,0.033895189346926355,
0.0053187718113678496,0.033581403580234689,
0.007937142371100785,0.033060577293521007,
0.010506577808748212,0.032335921554035224,
0.013011236700413053,0.031411904105383755,
0.015435676991144592,0.030294221822404512,
0.017764951200342265,0.028989765588039139,
0.019984698577944087,0.027506577808748219,
0.022081233643226245,0.025853802830401056,
0.024041630560342617,0.024041630560342621,
0.025853802830401052,0.022081233643226249,
0.027506577808748215,0.019984698577944091,
0.028989765588039139,0.017764951200342265,
0.030294221822404509,0.015435676991144594,
0.031411904105383755,0.013011236700413053,
0.032335921554035224,0.010506577808748214,
0.033060577293521007,0.0079371423711007867,
0.033581403580234689,0.0053187718113678522,
0.033895189346926355,0.0026676092547467303,
0.034,0.0000000000000000020818308014980413,
0.033895189346926355,-0.0026676092547467264,
0.033581403580234689,-0.0053187718113678478,
0.033060577293521007,-0.0079371423711007832,
0.032335921554035224,-0.01050657780874821,
0.031411904105383755,-0.013011236700413051,
0.030294221822404512,-0.015435676991144589,
0.028989765588039142,-0.017764951200342261,
0.027506577808748219,-0.019984698577944084,
0.025853802830401056,-0.022081233643226245,
0.024041630560342621,-0.024041630560342617,
0.022081233643226238,-0.025853802830401063,
0.019984698577944091,-0.027506577808748215,
0.017764951200342251,-0.028989765588039142,
0.015435676991144596,-0.030294221822404509,
0.013011236700413072,-0.031411904105383741,
0.010506577808748217,-0.032335921554035224,
0.0079371423711007746,-0.033060577293521007,
0.0053187718113678548,-0.033581403580234682,
0.0026676092547467472,-0.033895189346926355,
0.0000000000000000041636616029960833,-0.034,
-0.0026676092547467389,-0.033895189346926355,
-0.0053187718113678452,-0.033581403580234689,
-0.0079371423711007659,-0.033060577293521014,
-0.01050657780874821,-0.032335921554035224,
-0.013011236700413063,-0.031411904105383748,
-0.015435676991144589,-0.030294221822404512,
-0.017764951200342244,-0.028989765588039153,
-0.019984698577944084,-0.027506577808748219,
-0.022081233643226252,-0.025853802830401049,
-0.02404163056034261,-0.024041630560342624,
-0.025853802830401063,-0.022081233643226238,
-0.027506577808748208,-0.019984698577944097,
-0.028989765588039142,-0.017764951200342254,
-0.030294221822404509,-0.015435676991144596,
-0.031411904105383741,-0.013011236700413074,
-0.032335921554035224,-0.010506577808748219,
-0.033060577293521007,-0.0079371423711007763,
-0.033581403580234682,-0.0053187718113678556,
-0.033895189346926355,-0.0026676092547467493,
0*
%
%AMREC270*
4,1,3,
0.059055118110236227,-0.023622047244094491,
0.059055118110236227,0.023622047244094484,
-0.059055118110236227,0.023622047244094491,
-0.059055118110236227,-0.023622047244094484,
0*
%
%AMREC280*
4,1,3,
0.044,-0.044,
0.044,0.044,
-0.044,0.044,
-0.044,-0.044,
0*
%
%ADD10C,0.0039370078740157488*%
%ADD11C,0.005905511811023622*%
%ADD12R,0.068X0.068*%
%ADD13O,0.068X0.068*%
%ADD14R,0.047244094488188976X0.11811023622047245*%
%ADD15R,0.088X0.088*%
%ADD16C,0.023622047244094488*%
%ADD17C,0.01*%
%ADD18C,0.025*%
%ADD19C,0.02*%
%ADD30C,0.0039370078740157488*%
%ADD31C,0.005905511811023622*%
%ADD32REC10*%
%ADD33OBR20*%
%ADD34REC30*%
%ADD35REC40*%
%ADD36C,0.023622047244094488*%
%ADD37C,0.01*%
%ADD38C,0.025*%
%ADD39C,0.02*%
%ADD50C,0.0039370078740157488*%
%ADD51C,0.005905511811023622*%
%ADD52REC250*%
%ADD53OBR260*%
%ADD54REC270*%
%ADD55REC280*%
%ADD56C,0.023622047244094488*%
%ADD57C,0.01*%
%ADD58C,0.025*%
%ADD59C,0.02*%
%ADD70C,0.0039370078740157488*%
%ADD71C,0.005905511811023622*%
%LPD*%
G04 #@! TF.FileFunction,Copper,L2,Bot,Signal*
G04 Gerber Fmt 4.6, Leading zero omitted, Abs format (unit mm)*
G04 Created by KiCad (PCBNEW 4.0.1-3.201512221401+6198~38~ubuntu15.10.1-stable) date søn 24 jan 2016 12:57:00 CET*
G01*
G04 APERTURE LIST*
G04 APERTURE END LIST*
D10*
D11*
X0000016204Y0001696850D02*
X0000016204Y0000515748D01*
X0000664204Y0001696850D02*
X0000016204Y0001696850D01*
X0000664204Y0000515748D02*
X0000664204Y0001696850D01*
X0000016204Y0000515748D02*
X0000664204Y0000515748D01*
D12*
X0000132204Y0000592125D03*
D13*
X0000132204Y0000692125D03*
X0000232204Y0000592125D03*
X0000232204Y0000692125D03*
X0000332203Y0000592125D03*
X0000332203Y0000692125D03*
X0000432204Y0000592125D03*
X0000432204Y0000692125D03*
D14*
X0000065244Y0001607716D03*
X0000143984Y0001607716D03*
X0000222724Y0001607716D03*
X0000301464Y0001607716D03*
X0000380204Y0001607716D03*
X0000458944Y0001607716D03*
X0000537685Y0001607716D03*
X0000616425Y0001607716D03*
X0000616425Y0000832125D03*
X0000537685Y0000832125D03*
X0000458944Y0000832125D03*
X0000380204Y0000832125D03*
X0000301464Y0000832125D03*
X0000222724Y0000832125D03*
X0000143984Y0000832125D03*
X0000065244Y0000832125D03*
D15*
X0000586204Y0000648125D03*
D16*
X0000204204Y0001008124D03*
X0000592204Y0001386125D03*
X0000228204Y0000944125D03*
X0000592204Y0001510125D03*
X0000540204Y0000944125D03*
X0000246204Y0001020125D03*
D17*
X0000204204Y0001008124D02*
X0000065244Y0001147086D01*
X0000065244Y0001147086D02*
X0000065244Y0001607716D01*
D18*
X0000228204Y0000944125D02*
X0000592204Y0001308125D01*
X0000592204Y0001308125D02*
X0000592204Y0001386125D01*
X0000616425Y0001607716D02*
X0000616425Y0001534346D01*
X0000616425Y0001534346D02*
X0000592204Y0001510125D01*
X0000458944Y0000832125D02*
X0000458944Y0000916181D01*
X0000458944Y0000916181D02*
X0000486889Y0000944125D01*
X0000486889Y0000944125D02*
X0000523501Y0000944125D01*
X0000523501Y0000944125D02*
X0000540204Y0000944125D01*
X0000588480Y0000944125D02*
X0000540204Y0000944125D01*
X0000616425Y0000832125D02*
X0000616425Y0000916181D01*
X0000616425Y0000916181D02*
X0000588480Y0000944125D01*
D19*
X0000537685Y0000832125D02*
X0000537685Y0000696645D01*
X0000537685Y0000696645D02*
X0000586204Y0000648125D01*
D17*
X0000332203Y0000592125D02*
X0000381204Y0000543125D01*
X0000438779Y0000758069D02*
X0000418826Y0000758069D01*
X0000381204Y0000543125D02*
X0000455724Y0000543125D01*
X0000455724Y0000543125D02*
X0000481204Y0000568605D01*
X0000481204Y0000568605D02*
X0000481204Y0000715645D01*
X0000481204Y0000715645D02*
X0000438779Y0000758069D01*
X0000418826Y0000758069D02*
X0000380204Y0000796691D01*
X0000380204Y0000796691D02*
X0000380204Y0000832125D01*
X0000301464Y0000832125D02*
X0000301464Y0000796691D01*
X0000301464Y0000796691D02*
X0000383204Y0000714952D01*
X0000383204Y0000714952D02*
X0000383204Y0000641126D01*
X0000383204Y0000641126D02*
X0000398204Y0000626125D01*
X0000398204Y0000626125D02*
X0000432204Y0000592125D01*
X0000332203Y0000692125D02*
X0000298204Y0000726125D01*
X0000298204Y0000726125D02*
X0000293291Y0000726125D01*
X0000293291Y0000726125D02*
X0000222724Y0000796691D01*
X0000222724Y0000796691D02*
X0000222724Y0000832125D01*
X0000143984Y0001607716D02*
X0000143984Y0001122346D01*
X0000143984Y0001122346D02*
X0000246204Y0001020125D01*
X0000232204Y0000692125D02*
X0000198204Y0000726125D01*
X0000143984Y0000796691D02*
X0000143984Y0000832125D01*
X0000198204Y0000726125D02*
X0000198204Y0000742472D01*
X0000198204Y0000742472D02*
X0000143984Y0000796691D01*
G04 #@! TF.FileFunction,Copper,L2,Bot,Signal*
G04 Gerber Fmt 4.6, Leading zero omitted, Abs format (unit mm)*
G04 Created by KiCad (PCBNEW 4.0.1-3.201512221401+6198~38~ubuntu15.10.1-stable) date søn 24 jan 2016 12:57:00 CET*
G01*
G04 APERTURE LIST*
G04 APERTURE END LIST*
D30*
D31*
X0000744094Y0000500456D02*
X0001925196Y0000500456D01*
X0000744094Y0001148456D02*
X0000744094Y0000500456D01*
X0001925196Y0001148456D02*
X0000744094Y0001148456D01*
X0001925196Y0000500456D02*
X0001925196Y0001148456D01*
D32*
X0001848818Y0000616456D03*
D33*
X0001748818Y0000616456D03*
X0001848818Y0000716456D03*
X0001748818Y0000716456D03*
X0001848818Y0000816455D03*
X0001748818Y0000816455D03*
X0001848818Y0000916456D03*
X0001748818Y0000916456D03*
D34*
X0000833228Y0000549496D03*
X0000833228Y0000628236D03*
X0000833228Y0000706976D03*
X0000833228Y0000785716D03*
X0000833228Y0000864455D03*
X0000833228Y0000943196D03*
X0000833228Y0001021937D03*
X0000833228Y0001100677D03*
X0001608818Y0001100677D03*
X0001608818Y0001021936D03*
X0001608818Y0000943196D03*
X0001608818Y0000864455D03*
X0001608818Y0000785716D03*
X0001608818Y0000706976D03*
X0001608818Y0000628236D03*
X0001608818Y0000549496D03*
D35*
X0001792818Y0001070456D03*
D36*
X0001432818Y0000688456D03*
X0001054818Y0001076456D03*
X0001496817Y0000712456D03*
X0000930818Y0001076456D03*
X0001496817Y0001024456D03*
X0001420818Y0000730456D03*
D37*
X0001432818Y0000688456D02*
X0001293858Y0000549496D01*
X0001293858Y0000549496D02*
X0000833228Y0000549496D01*
D38*
X0001496817Y0000712456D02*
X0001132818Y0001076456D01*
X0001132818Y0001076456D02*
X0001054818Y0001076456D01*
X0000833228Y0001100677D02*
X0000906598Y0001100677D01*
X0000906598Y0001100677D02*
X0000930818Y0001076456D01*
X0001608818Y0000943196D02*
X0001524763Y0000943196D01*
X0001524763Y0000943196D02*
X0001496817Y0000971141D01*
X0001496817Y0000971141D02*
X0001496817Y0001007752D01*
X0001496817Y0001007752D02*
X0001496817Y0001024456D01*
X0001496817Y0001072732D02*
X0001496817Y0001024456D01*
X0001608818Y0001100677D02*
X0001524763Y0001100677D01*
X0001524763Y0001100677D02*
X0001496817Y0001072732D01*
D39*
X0001608818Y0001021936D02*
X0001744299Y0001021936D01*
X0001744299Y0001021936D02*
X0001792818Y0001070456D01*
D37*
X0001848818Y0000816455D02*
X0001897818Y0000865456D01*
X0001682874Y0000923031D02*
X0001682874Y0000903078D01*
X0001897818Y0000865456D02*
X0001897818Y0000939976D01*
X0001897818Y0000939976D02*
X0001872338Y0000965456D01*
X0001872338Y0000965456D02*
X0001725298Y0000965456D01*
X0001725298Y0000965456D02*
X0001682874Y0000923031D01*
X0001682874Y0000903078D02*
X0001644251Y0000864455D01*
X0001644251Y0000864455D02*
X0001608818Y0000864455D01*
X0001608818Y0000785716D02*
X0001644251Y0000785716D01*
X0001644251Y0000785716D02*
X0001725990Y0000867455D01*
X0001725990Y0000867455D02*
X0001799817Y0000867455D01*
X0001799817Y0000867455D02*
X0001814818Y0000882456D01*
X0001814818Y0000882456D02*
X0001848818Y0000916456D01*
X0001748818Y0000816455D02*
X0001714817Y0000782455D01*
X0001714817Y0000782455D02*
X0001714817Y0000777543D01*
X0001714817Y0000777543D02*
X0001644251Y0000706976D01*
X0001644251Y0000706976D02*
X0001608818Y0000706976D01*
X0000833228Y0000628236D02*
X0001318598Y0000628236D01*
X0001318598Y0000628236D02*
X0001420818Y0000730456D01*
X0001748818Y0000716456D02*
X0001714817Y0000682456D01*
X0001644251Y0000628236D02*
X0001608818Y0000628236D01*
X0001714817Y0000682456D02*
X0001698472Y0000682456D01*
X0001698472Y0000682456D02*
X0001644251Y0000628236D01*
G04 #@! TF.FileFunction,Copper,L2,Bot,Signal*
G04 Gerber Fmt 4.6, Leading zero omitted, Abs format (unit mm)*
G04 Created by KiCad (PCBNEW 4.0.1-3.201512221401+6198~38~ubuntu15.10.1-stable) date søn 24 jan 2016 12:57:00 CET*
G01*
G04 APERTURE LIST*
G04 APERTURE END LIST*
D50*
D51*
X0000744094Y0001248488D02*
X0001925196Y0001248488D01*
X0000744094Y0001896488D02*
X0000744094Y0001248488D01*
X0001925196Y0001896488D02*
X0000744094Y0001896488D01*
X0001925196Y0001248488D02*
X0001925196Y0001896488D01*
D52*
X0001848818Y0001364488D03*
D53*
X0001748818Y0001364488D03*
X0001848818Y0001464488D03*
X0001748818Y0001464488D03*
X0001848818Y0001564488D03*
X0001748818Y0001564488D03*
X0001848818Y0001664488D03*
X0001748818Y0001664488D03*
D54*
X0000833228Y0001297526D03*
X0000833228Y0001376267D03*
X0000833228Y0001455007D03*
X0000833228Y0001533748D03*
X0000833228Y0001612488D03*
X0000833228Y0001691228D03*
X0000833228Y0001769968D03*
X0000833228Y0001848708D03*
X0001608818Y0001848708D03*
X0001608818Y0001769968D03*
X0001608818Y0001691228D03*
X0001608818Y0001612488D03*
X0001608818Y0001533748D03*
X0001608818Y0001455007D03*
X0001608818Y0001376267D03*
X0001608818Y0001297526D03*
D55*
X0001792818Y0001818488D03*
D56*
X0001432818Y0001436488D03*
X0001054818Y0001824488D03*
X0001496817Y0001460488D03*
X0000930818Y0001824488D03*
X0001496817Y0001772488D03*
X0001420818Y0001478488D03*
D57*
X0001432818Y0001436488D02*
X0001293858Y0001297526D01*
X0001293858Y0001297526D02*
X0000833228Y0001297526D01*
D58*
X0001496817Y0001460488D02*
X0001132818Y0001824488D01*
X0001132818Y0001824488D02*
X0001054818Y0001824488D01*
X0000833228Y0001848708D02*
X0000906598Y0001848708D01*
X0000906598Y0001848708D02*
X0000930818Y0001824488D01*
X0001608818Y0001691228D02*
X0001524763Y0001691228D01*
X0001524763Y0001691228D02*
X0001496817Y0001719173D01*
X0001496817Y0001719173D02*
X0001496817Y0001755784D01*
X0001496817Y0001755784D02*
X0001496817Y0001772488D01*
X0001496817Y0001820763D02*
X0001496817Y0001772488D01*
X0001608818Y0001848708D02*
X0001524763Y0001848708D01*
X0001524763Y0001848708D02*
X0001496817Y0001820763D01*
D59*
X0001608818Y0001769968D02*
X0001744299Y0001769968D01*
X0001744299Y0001769968D02*
X0001792818Y0001818488D01*
D57*
X0001848818Y0001564488D02*
X0001897818Y0001613488D01*
X0001682874Y0001671063D02*
X0001682874Y0001651110D01*
X0001897818Y0001613488D02*
X0001897818Y0001688008D01*
X0001897818Y0001688008D02*
X0001872338Y0001713488D01*
X0001872338Y0001713488D02*
X0001725298Y0001713488D01*
X0001725298Y0001713488D02*
X0001682874Y0001671063D01*
X0001682874Y0001651110D02*
X0001644251Y0001612488D01*
X0001644251Y0001612488D02*
X0001608818Y0001612488D01*
X0001608818Y0001533748D02*
X0001644251Y0001533748D01*
X0001644251Y0001533748D02*
X0001725991Y0001615488D01*
X0001725991Y0001615488D02*
X0001799817Y0001615488D01*
X0001799817Y0001615488D02*
X0001814818Y0001630488D01*
X0001814818Y0001630488D02*
X0001848818Y0001664488D01*
X0001748818Y0001564488D02*
X0001714817Y0001530488D01*
X0001714817Y0001530488D02*
X0001714817Y0001525574D01*
X0001714817Y0001525574D02*
X0001644251Y0001455007D01*
X0001644251Y0001455007D02*
X0001608818Y0001455007D01*
X0000833228Y0001376267D02*
X0001318598Y0001376267D01*
X0001318598Y0001376267D02*
X0001420818Y0001478488D01*
X0001748818Y0001464488D02*
X0001714817Y0001430488D01*
X0001644251Y0001376267D02*
X0001608818Y0001376267D01*
X0001714817Y0001430488D02*
X0001698472Y0001430488D01*
X0001698472Y0001430488D02*
X0001644251Y0001376267D01*
G04 #@! TF.FileFunction,Copper,L2,Bot,Signal*
G04 Gerber Fmt 4.6, Leading zero omitted, Abs format (unit mm)*
G04 Created by KiCad (PCBNEW 4.0.1-3.201512221401+6198~38~ubuntu15.10.1-stable) date lør 23 jan 2016 16:05:11 CET*
G01*
G04 APERTURE LIST*
G04 APERTURE END LIST*
D70*
D71*
X0000039370Y0000000000D02*
X0000039370Y0000393700D01*
X0001929133Y0000000000D02*
X0000039370Y0000000000D01*
X0001929133Y0000393700D02*
X0001929133Y0000000000D01*
X0000039370Y0000393700D02*
X0001929133Y0000393700D01*
M02*
