%
M48
METRIC
M71
T01C0.4
T02C1.016
T03C0.4
T04C1.016
T05C0.4
T06C1.016
T07C0.5
%
T01
X-016277Y057968
X-016277Y057966
X-016277Y057968
X-016268Y057966
X-016268Y057981
X-016268Y057978
T02
X-016280Y057960
X-016280Y057958
X-016277Y057960
X-016277Y057958
X-016274Y057960
X-016274Y057958
X-016271Y057960
X-016271Y057958
X-016268Y057959
T03
X004032Y-003979
X004034Y-003978
X004032Y-003978
X004034Y-003970
X004019Y-003969
X004022Y-003969
T04
X004040Y-003981
X004042Y-003981
X004040Y-003978
X004042Y-003978
X004040Y-003976
X004042Y-003976
X004040Y-003973
X004042Y-003973
X004041Y-003969
T05
X004032Y015021
X004034Y015022
X004032Y015022
X004034Y015030
X004019Y015031
X004022Y015031
T06
X004040Y015019
X004042Y015019
X004040Y015022
X004042Y015022
X004040Y015024
X004042Y015024
X004040Y015027
X004042Y015027
X004041Y015031
T07
X005381Y012850
X006381Y012850
X007381Y012850
X008381Y012850
X009381Y012850
X010381Y012850
X011381Y012850
X012381Y012850
X011785Y010250
X010785Y010250
X009785Y010250
X008785Y010250
X007785Y010250
X006785Y010250
X005785Y010250
X022410Y012461
X023410Y012461
X024410Y012461
X025410Y012461
X026410Y012461
X027410Y012461
X028410Y012461
X029410Y012461
X028785Y010250
X027785Y010250
X026785Y010250
X025785Y010250
X024785Y010250
X023785Y010250
X022785Y010250
X038410Y012461
X039410Y012461
X040410Y012461
X041410Y012461
X042410Y012461
X043410Y012461
X044410Y012461
X044785Y010250
X043785Y010250
X042785Y010250
X041785Y010250
X040785Y010250
X039785Y010250
X038785Y010250
X037785Y010250
X045144Y029420
X044144Y029420
X043144Y029420
X042144Y029420
X041144Y029420
X040144Y029420
X039144Y029420
X038144Y029420
X038410Y031461
X039410Y031461
X040410Y031461
X041410Y031461
X042410Y031461
X043410Y031461
X044410Y031461
X030144Y029420
X029144Y029420
X028144Y029420
X027144Y029420
X026144Y029420
X025144Y029420
X024144Y029420
X023144Y029420
X023410Y031461
X024410Y031461
X025410Y031461
X026410Y031461
X027410Y031461
X028410Y031461
X029410Y031461
X017120Y035707
X017120Y036707
X017120Y037707
X017120Y038707
X017120Y039707
X017120Y040707
X017120Y041707
X017120Y042707
X018650Y042808
X018650Y041808
X018650Y040808
X018650Y039808
X018650Y038808
X018650Y037808
X018650Y036808
X018650Y035808
X017120Y017707
X017120Y018707
X017120Y019707
X017120Y020707
X017120Y021707
X017120Y022707
X017120Y023707
X017120Y024707
X018650Y024808
X018650Y023808
X018650Y022808
X018650Y021808
X018650Y020808
X018650Y019808
X018650Y018808
X018650Y017808
M30
